<!DOCTYPE svg PUBLIC "-//W3C//DTD SVG 20010904//EN" "http://www.w3.org/TR/2001/REC-SVG-20010904/DTD/svg10.dtd">
<?xml-stylesheet type="text/css" href="metro.css"?>
<svg version="1.0" xmlns="http://www.w3.org/2000/svg" width="794px" height="794px" viewBox="0 0 7940 7940" preserveAspectRatio="xMidYMid meet">
<g id="layer1" fill="#ffffff" stroke="none">
 <path d="M0 3970 l0 -3970 3970 0 3970 0 0 3970 0 3970 -3970 0 -3970 0 0 -3970z m1690 3559 c6 -11 9 -25 7 -32 -2 -7 4 -23 14 -36 18 -23 19 -62 19 -862 l0 -839 127 0 126 0 117 -115 c64 -63 119 -115 124 -115 4 0 6 92 4 205 l-3 205 -179 179 c-129 129 -183 177 -196 174 -22 -6 -53 37 -44 61 8 22 50 31 69 16 8 -7 15 -22 15 -34 0 -14 50 -71 151 -171 83 -83 164 -168 180 -189 l29 -39 0 -204 c0 -111 3 -203 7 -203 4 0 59 52 123 115 l117 115 76 0 c43 0 77 3 77 8 0 4 -39 46 -86 92 -47 47 -99 103 -115 124 l-29 39 0 464 c0 296 -4 463 -10 463 -16 0 -23 49 -10 65 15 18 51 20 68 3 16 -16 15 -43 -3 -58 -13 -11 -15 -76 -15 -479 l0 -466 114 -114 c63 -62 118 -111 124 -107 5 3 21 -3 35 -14 22 -18 41 -20 170 -20 l145 0 5 29 c7 34 40 49 63 30 12 -10 22 -6 54 26 l40 39 0 509 c0 421 2 513 14 535 8 15 76 88 150 162 108 107 136 140 136 162 0 29 26 44 60 33 27 -9 27 -60 1 -75 -11 -5 -26 -8 -33 -5 -9 4 -69 -51 -156 -139 l-142 -144 0 -505 c0 -281 -4 -516 -9 -530 -5 -13 -28 -42 -50 -64 -54 -52 -53 -67 0 -60 59 8 96 46 91 92 -4 29 0 36 19 44 14 5 31 5 40 0 12 -6 22 -2 35 12 33 36 70 49 142 49 53 0 71 4 76 15 3 8 18 15 33 15 23 0 53 25 154 128 70 70 134 138 143 152 24 36 24 415 0 424 -20 8 -15 55 9 70 12 8 22 8 35 0 23 -15 28 -62 8 -70 -14 -5 -16 -35 -16 -217 l0 -210 -137 -139 c-75 -76 -131 -138 -123 -138 8 0 79 64 157 142 l143 143 0 596 c0 518 -2 598 -15 609 -30 25 -11 70 30 70 41 0 60 -45 30 -70 -13 -11 -15 -89 -15 -596 0 -339 -4 -593 -9 -607 -6 -14 -73 -90 -149 -169 l-140 -143 281 -3 c250 -2 282 -1 299 14 17 16 18 47 18 654 0 564 -2 639 -16 650 -35 30 5 98 44 74 23 -15 28 -65 8 -76 -14 -8 -16 -55 -16 -414 0 -397 0 -405 19 -394 12 6 121 10 285 10 l266 0 80 76 c63 61 80 83 80 105 0 34 30 55 59 40 43 -23 31 -81 -16 -81 -20 0 -48 -21 -109 -80 -63 -62 -88 -80 -110 -80 -16 0 -138 -1 -270 -3 -222 -2 -244 -4 -263 -21 -20 -18 -21 -28 -21 -233 l0 -213 40 0 c27 0 43 -5 46 -15 5 -13 36 -15 193 -15 212 0 235 -6 316 -81 l46 -43 147 147 147 147 -221 0 c-185 0 -224 -2 -234 -15 -15 -18 -51 -20 -68 -3 -19 19 -14 46 13 64 24 16 27 16 49 -5 21 -20 32 -21 230 -21 195 0 208 1 235 21 16 12 33 19 38 16 5 -3 147 132 316 301 l307 307 0 334 c1 301 -1 335 -16 352 -14 16 -15 24 -6 44 13 29 52 34 72 10 13 -16 6 -65 -10 -65 -6 0 -10 -122 -10 -333 0 -291 -2 -336 -16 -357 -9 -14 -150 -159 -313 -324 -203 -204 -291 -300 -281 -303 8 -3 80 -70 160 -149 144 -143 145 -144 145 -189 0 -44 -1 -46 -144 -189 -79 -79 -142 -149 -140 -155 2 -6 232 217 512 497 l507 507 0 497 c0 432 -2 497 -15 502 -18 7 -20 47 -3 64 19 19 56 14 68 -9 9 -16 8 -26 -6 -47 -23 -34 -21 5 -23 -551 l-1 -475 -515 -516 -515 -515 143 -143 c88 -88 150 -142 162 -142 13 0 101 81 243 223 207 207 222 225 222 258 0 21 -8 47 -20 62 -14 17 -20 40 -20 73 l0 49 515 515 c343 343 515 522 515 536 0 47 62 62 82 19 9 -21 8 -28 -8 -46 -10 -11 -26 -18 -35 -16 -12 3 -174 -153 -533 -512 -570 -570 -541 -534 -491 -616 28 -46 31 -75 11 -113 -8 -15 -109 -121 -225 -237 -164 -163 -211 -215 -211 -235 0 -18 19 -44 66 -90 117 -115 118 -151 8 -261 -41 -40 -74 -77 -74 -81 0 -5 85 -8 189 -8 196 0 229 -5 268 -42 l23 -21 431 432 c338 338 432 437 433 458 1 33 33 54 64 42 41 -16 23 -79 -22 -79 -14 0 -168 -147 -456 -435 l-436 -436 62 -59 62 -60 430 0 c373 0 431 2 436 15 7 19 50 19 66 1 34 -42 -22 -94 -60 -56 -19 19 -35 20 -453 20 l-433 0 -71 65 -71 65 -231 0 c-224 0 -231 -1 -231 -20 0 -19 7 -20 124 -20 69 0 137 -5 153 -11 15 -5 127 -109 249 -230 l220 -219 301 0 c258 0 302 2 307 15 7 18 47 20 64 3 34 -34 -6 -90 -48 -68 -11 6 -20 15 -20 20 0 6 -118 10 -311 10 l-311 0 -227 225 -226 225 -139 0 c-121 0 -141 -2 -152 -17 -11 -14 -13 -97 -14 -392 0 -335 2 -376 17 -393 14 -16 34 -18 198 -18 150 0 185 3 195 15 16 19 59 19 66 0 9 -22 565 -22 584 0 20 25 59 19 72 -11 11 -23 10 -29 -11 -45 -29 -24 -36 -24 -61 1 -19 19 -33 20 -293 20 -151 0 -277 -3 -281 -7 -11 -11 385 -402 401 -396 7 3 24 -2 38 -11 32 -21 106 -20 144 2 30 17 31 16 53 -5 19 -19 20 -26 10 -48 -13 -29 -52 -34 -72 -10 -8 10 -30 15 -65 15 -35 0 -57 -5 -65 -15 -16 -19 -59 -19 -66 0 -5 12 -26 15 -102 15 l-96 0 82 -84 c45 -46 82 -91 82 -101 0 -19 -107 -134 -164 -176 -33 -24 -49 -29 -99 -29 l-60 0 -93 91 c-77 76 -100 93 -136 100 -60 11 -226 11 -267 -1 -18 -5 -60 -34 -91 -65 l-59 -55 -110 0 -111 0 0 -29 c0 -29 1 -30 38 -23 36 6 63 7 147 3 38 -1 54 -15 507 -468 l468 -468 208 208 208 207 342 0 c213 0 342 4 342 10 0 5 9 14 20 20 42 22 82 -34 48 -68 -17 -17 -57 -15 -64 3 -5 13 -53 15 -342 15 l-335 0 -206 -204 -206 -205 30 -31 c18 -19 35 -28 46 -25 35 11 64 -46 37 -73 -30 -30 -89 4 -75 43 3 7 -8 25 -24 41 l-30 28 -209 -209 -210 -210 -115 -5 -116 -5 69 -68 c38 -38 75 -68 83 -67 28 4 38 0 49 -20 16 -30 -4 -60 -39 -60 -29 0 -41 15 -41 48 0 9 -35 52 -77 94 l-78 78 -308 0 c-240 0 -315 3 -340 14 -18 7 -101 83 -184 168 l-153 154 0 352 0 352 -185 0 -185 0 0 -321 0 -322 -247 -248 -247 -249 156 0 c126 0 158 3 168 15 18 22 46 18 64 -7 13 -19 14 -25 2 -43 -17 -25 -49 -31 -66 -10 -10 12 -39 15 -159 15 -80 0 -153 5 -161 10 -23 14 -50 -17 -50 -59 0 -34 20 -56 353 -388 234 -234 360 -353 376 -355 32 -4 50 -32 35 -55 -24 -38 -84 -23 -84 21 0 14 -107 128 -345 366 -384 384 -385 384 -347 461 12 24 19 45 16 48 -2 3 -42 -31 -87 -76 -45 -44 -92 -86 -104 -92 -12 -6 -73 -11 -138 -11 l-117 0 -59 -58 -60 -57 124 -123 124 -122 276 0 c171 0 286 -4 304 -11 15 -6 91 -73 168 -150 91 -89 148 -139 162 -139 44 0 56 -51 18 -76 -18 -12 -24 -11 -43 2 -12 8 -22 25 -22 37 0 15 -45 67 -142 164 l-143 142 -292 3 -293 3 -128 128 -128 128 -57 -60 -57 -60 0 -204 c0 -170 3 -207 15 -217 30 -25 11 -70 -30 -70 -41 0 -60 45 -31 70 12 9 16 53 18 221 l3 209 62 62 63 63 -290 290 -290 291 0 154 0 155 -137 -140 c-103 -103 -137 -144 -135 -160 2 -12 -4 -28 -12 -35 -14 -11 -16 -55 -16 -324 0 -172 -4 -327 -10 -346 -7 -26 -61 -87 -215 -240 -169 -169 -205 -210 -205 -233 0 -47 -67 -56 -84 -12 -10 27 12 55 42 55 23 0 66 38 235 208 l207 208 0 337 c0 185 -2 337 -5 337 -3 0 -195 -190 -426 -423 -292 -293 -422 -429 -424 -446 -6 -51 -69 -62 -81 -15 -8 29 11 54 40 54 30 0 866 836 866 866 0 12 7 27 15 34 12 10 15 40 15 153 l0 141 -175 176 c-141 141 -180 175 -201 175 -34 -2 -614 -578 -607 -604 2 -9 -5 -25 -16 -35 -18 -16 -25 -17 -46 -8 -44 20 -28 82 21 82 15 0 110 89 313 292 227 228 291 298 291 318 0 19 -41 66 -177 202 l-178 178 -5 200 -5 200 -105 105 -105 105 -532 -532 c-481 -481 -530 -533 -523 -554 7 -17 4 -29 -9 -46 -16 -19 -22 -21 -44 -11 -21 10 -28 9 -42 -7 -9 -10 -14 -23 -11 -29 21 -33 -43 -68 -72 -39 -29 29 6 93 39 72 6 -3 19 2 29 11 19 17 19 18 0 43 -32 40 -20 75 25 77 39 2 1065 1028 1065 1065 0 19 -55 80 -242 267 l-243 243 -3 425 -3 425 43 46 c23 25 91 95 150 154 74 74 106 112 102 123 -3 9 3 24 15 36 20 20 21 31 21 296 0 262 -1 276 -20 295 -13 13 -33 20 -61 20 -37 0 -47 7 -139 94 l-98 94 -112 4 c-108 3 -113 4 -136 31 -24 28 -24 30 -24 246 0 185 -2 220 -15 225 -19 7 -19 50 0 66 20 17 62 5 70 -21 5 -14 0 -28 -14 -43 -19 -20 -20 -33 -20 -227 0 -168 3 -210 15 -227 15 -22 20 -22 265 -22 228 0 252 2 269 18 19 18 20 32 17 315 l-2 297 -145 145 c-93 93 -152 145 -165 145 -49 0 -63 62 -19 82 23 11 29 10 46 -12 10 -13 17 -29 14 -35 -2 -7 50 -66 116 -131 66 -65 133 -137 149 -158 l29 -39 0 -298 0 -297 31 -24 c17 -13 70 -60 118 -104 47 -45 96 -87 108 -93 12 -6 70 -11 133 -11 l110 0 -2 838 c-3 881 -3 884 -45 867 -39 -14 -71 43 -41 73 19 19 56 14 68 -9z"/>
 <path d="M1635 7521 c-8 -15 3 -31 21 -31 9 0 14 7 12 17 -4 20 -24 28 -33 14z"/>
 <path d="M3980 7510 c0 -11 6 -20 13 -20 19 0 27 10 20 26 -8 21 -33 17 -33 -6z"/>
 <path d="M5930 7510 c0 -15 5 -20 18 -18 9 2 17 10 17 18 0 8 -8 16 -17 18 -13 2 -18 -3 -18 -18z"/>
 <path d="M6385 7521 c-8 -15 3 -31 21 -31 9 0 14 7 12 17 -4 20 -24 28 -33 14z"/>
 <path d="M4302 7313 c2 -10 10 -18 18 -18 8 0 16 8 18 18 2 12 -3 17 -18 17 -15 0 -20 -5 -18 -17z"/>
 <path d="M3527 7264 c-14 -15 -6 -34 14 -34 14 0 19 5 17 17 -3 18 -20 27 -31 17z"/>
 <path d="M2415 7001 c-8 -15 3 -31 21 -31 9 0 14 7 12 17 -4 20 -24 28 -33 14z"/>
 <path d="M854 6929 c-8 -14 11 -33 25 -25 6 4 11 14 11 22 0 16 -26 19 -36 3z"/>
 <path d="M7165 6871 c-8 -15 3 -31 21 -31 9 0 14 7 12 17 -4 20 -24 28 -33 14z"/>
 <path d="M3917 6744 c-14 -15 -6 -34 14 -34 14 0 19 5 17 17 -3 18 -20 27 -31 17z"/>
 <path d="M5082 6663 c2 -10 10 -18 18 -18 8 0 16 8 18 18 2 12 -3 17 -18 17 -15 0 -20 -5 -18 -17z"/>
 <path d="M595 6481 c-8 -15 3 -31 21 -31 9 0 14 7 12 17 -4 20 -24 28 -33 14z"/>
 <path d="M1837 6354 c-14 -15 -6 -34 14 -34 14 0 19 5 17 17 -3 18 -20 27 -31 17z"/>
 <path d="M4757 6153 c-3 -5 -2 -15 3 -22 10 -17 43 -6 38 12 -6 15 -34 22 -41 10z"/>
 <path d="M5280 6140 c0 -15 5 -20 18 -18 9 2 17 10 17 18 0 8 -8 16 -17 18 -13 2 -18 -3 -18 -18z"/>
 <path d="M5330 6115 c-7 -8 -22 -15 -34 -15 -14 0 -69 -48 -164 -143 l-142 -142 158 -158 c120 -120 163 -157 183 -157 19 0 58 33 162 138 185 187 185 170 -1 355 -76 75 -141 137 -144 137 -3 0 -11 -7 -18 -15z"/>
 <path d="M1187 5964 c-14 -15 -6 -34 14 -34 14 0 19 5 17 17 -3 18 -20 27 -31 17z"/>
 <path d="M3592 5957 c-17 -20 -5 -27 50 -27 42 0 49 3 46 18 -4 22 -79 30 -96 9z"/>
 <path d="M4307 5963 c-21 -20 -4 -33 41 -33 54 0 67 7 51 27 -12 13 -80 18 -92 6z"/>
 <path d="M986 5849 c69 -69 87 -81 122 -86 55 -7 81 21 82 88 0 72 -13 79 -161 79 l-124 0 81 -81z"/>
 <path d="M1228 5916 c-26 -20 -25 -109 2 -136 17 -17 33 -20 113 -20 l92 0 -86 85 c-47 47 -90 85 -95 85 -5 0 -17 -7 -26 -14z"/>
 <path d="M3382 5901 c-37 -31 -28 -53 10 -27 13 9 43 16 71 16 42 0 107 21 107 35 0 3 -35 5 -77 5 -71 -1 -81 -3 -111 -29z"/>
 <path d="M3700 5915 c-7 -8 -22 -15 -34 -15 -13 0 -50 -29 -99 -78 l-77 -77 0 -318 0 -317 336 0 c227 0 342 4 357 11 46 24 97 82 97 111 0 16 7 31 15 34 13 5 15 50 15 319 0 289 -1 313 -18 328 -16 15 -52 17 -299 17 -237 0 -282 -2 -293 -15z"/>
 <path d="M4413 5915 c-8 -9 -13 -43 -13 -87 l0 -73 93 -93 c51 -50 99 -92 107 -92 7 0 24 -10 37 -22 l24 -22 144 144 144 144 -20 28 c-12 16 -44 42 -72 58 l-52 30 -190 0 c-151 -1 -193 -4 -202 -15z"/>
 <path d="M3561 5889 c-16 -13 -39 -19 -78 -19 -66 0 -93 -13 -93 -45 0 -30 -27 -58 -51 -52 -11 3 -31 -10 -56 -35 -41 -44 -87 -68 -128 -68 -21 0 -25 -5 -25 -29 0 -16 7 -34 15 -41 19 -16 20 -82 1 -118 -8 -15 -28 -40 -45 -57 l-31 -29 127 -128 c84 -84 135 -128 149 -128 12 0 27 -7 34 -15 7 -8 28 -15 46 -15 l34 0 0 304 c0 189 4 315 11 333 5 15 37 56 71 89 33 34 56 64 51 67 -4 3 -19 -3 -32 -14z"/>
 <path d="M4330 5585 c0 -173 3 -315 8 -315 4 0 57 50 117 110 138 139 138 137 18 265 -47 49 -89 100 -94 113 -5 13 -9 50 -9 83 0 52 -2 59 -20 59 -20 0 -20 -7 -20 -315z"/>
 <path d="M3280 5868 c0 -16 51 -68 66 -68 25 0 23 17 -6 48 -29 32 -60 42 -60 20z"/>
 <path d="M3270 5791 c-28 -33 -64 -51 -102 -51 -31 0 -38 -4 -38 -20 0 -17 7 -20 39 -20 32 0 48 8 88 44 32 30 45 48 38 55 -7 7 -15 4 -25 -8z"/>
 <path d="M3067 5793 c-4 -3 -7 -53 -7 -110 0 -86 3 -105 16 -110 29 -11 32 11 25 190 -1 35 -16 48 -34 30z"/>
 <path d="M4830 5654 c-114 -113 -144 -149 -141 -167 1 -12 39 -59 82 -104 l79 -83 0 -150 c0 -98 4 -149 10 -145 6 3 10 16 10 29 0 28 18 46 45 46 13 0 82 62 196 178 143 143 176 182 175 203 -1 20 -39 65 -156 182 l-156 156 -144 -145z"/>
 <path d="M1180 5750 c0 -15 5 -20 18 -18 9 2 17 10 17 18 0 8 -8 16 -17 18 -13 2 -18 -3 -18 -18z"/>
 <path d="M2675 5760 c-8 -14 3 -30 21 -30 8 0 14 9 14 20 0 21 -24 28 -35 10z"/>
 <path d="M1227 5722 c-15 -16 -17 -52 -17 -300 0 -155 3 -282 7 -282 3 0 36 30 72 67 36 37 90 89 119 115 l52 48 125 0 125 0 0 185 0 185 -233 0 c-214 0 -235 -2 -250 -18z"/>
 <path d="M1730 5554 l0 -186 77 -79 c108 -111 106 -112 263 46 100 100 125 131 126 155 1 25 -15 45 -111 140 l-113 110 -121 0 -121 0 0 -186z"/>
 <path d="M2393 5628 c-86 -85 -113 -118 -113 -138 0 -20 38 -63 173 -198 95 -95 180 -172 188 -172 32 0 39 23 39 123 0 54 5 108 11 120 6 12 61 73 122 135 l112 112 -43 0 c-52 0 -86 17 -131 64 -19 20 -45 36 -57 36 -12 0 -27 7 -34 15 -9 11 -32 15 -83 15 l-70 0 -114 -112z"/>
 <path d="M2777 5688 c48 -47 56 -52 108 -56 57 -5 57 -5 106 44 27 26 49 52 49 56 0 4 -71 8 -157 8 l-158 0 52 -52z"/>
 <path d="M2835 5484 l-125 -125 0 -108 c0 -128 8 -141 83 -141 61 0 87 24 87 81 0 38 6 48 77 121 69 70 76 81 65 98 -7 12 -12 57 -12 110 0 90 0 90 -25 90 -20 0 -56 -30 -150 -126z"/>
 <path d="M3031 5529 c-1 -56 3 -91 12 -103 12 -16 16 -15 49 23 33 36 59 103 45 117 -3 3 -17 -2 -31 -12 -25 -16 -28 -16 -46 1 -10 9 -21 27 -23 39 -2 11 -5 -18 -6 -65z"/>
 <path d="M4580 5528 c0 -16 51 -68 66 -68 26 0 25 23 -2 51 -28 29 -64 39 -64 17z"/>
 <path d="M2222 5493 c4 -21 33 -25 33 -3 0 8 -8 16 -18 18 -14 3 -18 -1 -15 -15z"/>
 <path d="M7100 5490 c0 -15 5 -20 18 -18 9 2 17 10 17 18 0 8 -8 16 -17 18 -13 2 -18 -3 -18 -18z"/>
 <path d="M4471 5366 c-63 -63 -112 -119 -110 -125 2 -6 57 42 123 108 65 65 114 121 109 124 -5 3 -60 -45 -122 -107z"/>
 <path d="M5317 5474 c-14 -14 -7 -35 11 -32 9 2 17 10 17 17 0 16 -18 25 -28 15z"/>
 <path d="M2086 5321 c-94 -95 -130 -137 -131 -155 0 -20 29 -55 137 -163 l138 -138 0 293 c0 160 -3 292 -8 292 -4 0 -65 -58 -136 -129z"/>
 <path d="M2250 5147 l0 -302 215 -215 215 -215 0 322 0 322 -27 18 c-15 10 -108 98 -208 196 -99 97 -184 177 -188 177 -4 0 -7 -136 -7 -303z"/>
 <path d="M4471 5296 l-141 -141 0 -194 0 -194 -182 -184 c-101 -102 -195 -191 -210 -199 -15 -8 -43 -14 -63 -14 -28 0 -35 -4 -35 -20 0 -17 7 -20 42 -20 42 0 46 3 238 195 l196 195 129 0 128 0 129 127 128 127 0 154 0 154 -76 78 c-109 113 -106 114 -283 -64z"/>
 <path d="M5127 5242 c-98 -98 -174 -181 -170 -185 7 -8 363 341 363 355 0 20 -27 -4 -193 -170z"/>
 <path d="M5175 5220 c-104 -104 -186 -192 -182 -196 3 -4 20 5 37 20 23 19 43 26 72 26 39 0 48 -6 152 -109 141 -139 133 -139 281 9 63 63 109 118 110 130 1 15 -40 64 -140 165 l-141 144 -189 -189z"/>
 <path d="M2972 5296 c-62 -64 -72 -79 -72 -110 0 -23 7 -43 20 -56 19 -19 33 -20 200 -20 99 0 180 3 180 8 0 8 -242 252 -251 252 -3 0 -38 -33 -77 -74z"/>
 <path d="M1353 5238 c-91 -90 -113 -117 -113 -140 0 -16 -7 -31 -15 -34 -12 -5 -15 -30 -15 -138 0 -149 0 -149 94 -242 83 -83 102 -94 173 -94 95 0 103 12 103 148 l0 107 145 145 c177 177 177 174 78 272 -38 36 -78 71 -90 77 -12 6 -71 11 -134 11 l-112 0 -114 -112z"/>
 <path d="M4304 5239 c-10 -17 13 -36 27 -22 12 12 4 33 -11 33 -5 0 -12 -5 -16 -11z"/>
 <path d="M1901 5180 c-16 -9 -6 -30 15 -30 15 0 20 25 6 34 -4 2 -14 1 -21 -4z"/>
 <path d="M4243 5140 l-52 -50 -350 0 -351 0 0 -142 0 -143 120 120 120 120 228 3 227 3 63 62 c58 58 72 77 55 77 -5 0 -31 -23 -60 -50z"/>
 <path d="M1909 5122 c-18 -2 -71 -48 -167 -146 l-142 -143 0 -105 c0 -89 3 -107 18 -121 16 -15 51 -17 287 -17 l269 0 198 -197 c109 -109 198 -202 198 -208 0 -17 38 -45 61 -45 33 0 49 25 49 74 0 36 -4 48 -21 57 -17 8 -20 18 -16 42 5 30 -7 44 -204 243 -190 192 -209 214 -209 245 0 31 -15 49 -147 180 -125 122 -152 144 -174 141z"/>
 <path d="M4265 5090 c-66 -68 -77 -70 -316 -70 l-212 0 -111 -110 c-87 -86 -111 -115 -111 -135 1 -19 41 -66 146 -173 79 -82 152 -160 162 -175 15 -22 25 -27 60 -27 42 0 46 3 235 193 l192 193 0 172 c0 95 -1 172 -3 172 -2 0 -20 -18 -42 -40z"/>
 <path d="M1180 5100 c0 -15 5 -20 18 -18 9 2 17 10 17 18 0 8 -8 16 -17 18 -13 2 -18 -3 -18 -18z"/>
 <path d="M2675 5110 c-8 -14 3 -30 21 -30 8 0 14 9 14 20 0 21 -24 28 -35 10z"/>
 <path d="M2872 5103 c4 -21 33 -25 33 -3 0 8 -8 16 -18 18 -14 3 -18 -1 -15 -15z"/>
 <path d="M3325 5110 c-8 -14 3 -30 21 -30 8 0 14 9 14 20 0 21 -24 28 -35 10z"/>
 <path d="M5670 5100 c0 -15 5 -20 18 -18 9 2 17 10 17 18 0 8 -8 16 -17 18 -13 2 -18 -3 -18 -18z"/>
 <path d="M2727 5072 c-14 -16 -17 -60 -19 -350 -2 -272 -1 -331 10 -327 23 9 52 -14 52 -40 0 -24 3 -25 55 -25 l55 0 0 360 c0 347 -1 361 -20 380 -27 27 -110 28 -133 2z"/>
 <path d="M2918 5069 c-16 -17 -18 -50 -18 -379 l0 -360 57 0 57 0 211 211 c189 188 211 213 207 237 -3 15 -11 36 -18 47 -9 13 -14 49 -14 105 0 95 -15 130 -54 130 -13 0 -29 7 -36 15 -10 12 -44 15 -194 14 -165 -1 -183 -2 -198 -20z"/>
 <path d="M3390 5083 c1 -5 7 -19 15 -33 9 -16 14 -55 15 -108 0 -81 10 -122 30 -122 6 0 10 55 10 135 l0 135 -35 0 c-19 0 -35 -3 -35 -7z"/>
 <path d="M1030 4915 l-145 -145 -3 -393 c-1 -242 2 -405 8 -427 15 -51 464 -500 500 -500 19 0 76 51 250 225 l225 225 -60 60 c-93 94 -72 90 -474 90 -280 0 -352 -3 -358 -13 -15 -25 -43 -27 -63 -7 -11 11 -20 26 -20 33 0 35 57 50 80 22 11 -13 65 -15 372 -15 244 0 366 -4 381 -11 12 -6 50 -39 85 -72 l62 -61 0 49 0 49 -145 146 -145 147 0 106 c0 139 -7 147 -116 147 l-77 0 -89 88 c-49 48 -94 95 -100 105 -5 11 -9 81 -9 158 1 76 -2 139 -6 139 -5 0 -73 -65 -153 -145z"/>
 <path d="M4901 5051 c-18 -12 -3 -37 54 -90 43 -39 65 -46 65 -18 0 7 -24 36 -52 64 -37 36 -57 50 -67 44z"/>
 <path d="M5558 4953 c-139 -142 -143 -156 -59 -236 54 -52 64 -57 104 -57 28 0 49 6 58 16 7 8 20 13 30 11 12 -3 42 20 93 73 102 105 102 117 1 223 -50 52 -82 77 -98 77 -15 0 -55 -33 -129 -107z"/>
 <path d="M5053 5031 c-52 -32 -43 -52 13 -31 50 20 84 2 181 -93 51 -50 96 -87 100 -83 4 4 -40 54 -97 111 -117 117 -143 129 -197 96z"/>
 <path d="M4865 4980 c-26 -29 -13 -45 13 -17 13 14 19 28 14 31 -5 3 -17 -3 -27 -14z"/>
 <path d="M5065 4972 c-6 -4 -15 -20 -20 -37 -8 -22 -18 -31 -37 -33 -16 -2 -40 -18 -58 -38 -30 -35 -30 -35 -30 -154 l0 -120 116 0 116 0 84 82 c53 51 84 89 84 102 0 14 -35 56 -93 114 -75 75 -98 92 -122 92 -17 0 -35 -4 -40 -8z"/>
 <path d="M4882 4927 c-47 -48 -39 -68 8 -22 22 21 40 43 40 47 0 16 -17 7 -48 -25z"/>
 <path d="M4704 4820 l-121 -120 -117 0 c-82 0 -125 -4 -144 -14 -38 -20 -370 -356 -352 -356 8 0 84 69 170 154 85 85 168 159 183 165 16 6 79 11 140 11 l112 0 129 129 c71 71 127 134 125 140 -2 6 -58 -43 -125 -109z"/>
 <path d="M4897 4882 l-47 -48 0 -102 c0 -89 3 -105 20 -122 l20 -20 0 109 c0 121 5 143 44 184 26 28 33 47 18 47 -4 0 -29 -22 -55 -48z"/>
 <path d="M4735 4779 c-50 -50 -108 -104 -129 -120 -38 -28 -42 -29 -160 -29 l-121 0 -150 -150 c-82 -82 -143 -150 -135 -150 8 0 73 59 145 130 l132 130 128 0 128 0 130 129 c71 70 128 133 126 140 -2 6 -45 -30 -94 -80z"/>
 <path d="M5366 4811 c-26 -27 -31 -61 -8 -61 16 0 74 68 68 79 -12 18 -31 12 -60 -18z"/>
 <path d="M2250 4805 c0 -6 4 -16 9 -23 9 -15 413 -422 418 -422 21 0 -31 59 -212 240 -118 118 -215 210 -215 205z"/>
 <path d="M4704 4690 l-121 -120 -117 0 c-82 0 -125 -4 -144 -14 -15 -8 -74 -62 -132 -120 -101 -103 -104 -106 -74 -106 18 0 37 7 44 15 16 19 44 19 63 0 14 -13 20 -11 54 18 21 19 64 59 96 91 31 31 69 61 83 66 14 6 88 10 166 10 133 0 141 1 159 23 10 12 18 27 19 34 0 6 7 18 15 27 12 12 15 35 13 105 l-3 90 -121 -119z"/>
 <path d="M3461 4786 c-9 -10 -8 -16 3 -25 10 -9 16 -8 25 3 9 10 8 16 -3 25 -10 9 -16 8 -25 -3z"/>
 <path d="M5407 4762 c-4 -5 31 -46 77 -91 73 -71 88 -81 120 -81 29 0 36 4 36 20 0 16 -7 20 -31 20 -43 0 -65 14 -135 82 -34 33 -64 56 -67 50z"/>
 <path d="M3235 4520 l-211 -210 -62 0 -62 0 0 -68 c0 -91 12 -102 109 -102 l73 0 98 95 c70 68 105 95 123 95 24 0 44 22 72 75 13 25 48 31 65 10 7 -8 15 -15 19 -15 3 0 5 74 3 165 -2 91 -6 165 -10 165 -4 0 -102 -95 -217 -210z"/>
 <path d="M3490 4565 l0 -165 133 0 c121 0 136 2 152 20 17 19 14 23 -125 165 -79 80 -147 145 -152 145 -4 0 -8 -74 -8 -165z"/>
 <path d="M5253 4650 l-82 -80 -124 0 -123 0 -22 -30 c-12 -16 -22 -33 -22 -38 0 -5 -7 -15 -15 -22 -12 -10 -15 -36 -15 -112 l0 -100 109 -112 110 -112 228 228 c125 126 240 236 255 244 15 8 41 14 58 14 23 0 30 4 30 20 0 17 -7 20 -38 20 -45 0 -89 29 -167 109 -68 71 -81 69 -182 -29z"/>
 <path d="M5677 4663 c-4 -3 -7 -41 -7 -83 0 -82 5 -97 27 -79 8 8 13 35 13 79 0 44 -5 71 -13 79 -8 6 -17 8 -20 4z"/>
 <path d="M5730 4610 c0 -19 7 -20 222 -20 220 0 221 0 203 20 -17 19 -31 20 -222 20 -196 0 -203 -1 -203 -20z"/>
 <path d="M1577 4594 c-14 -14 -7 -35 11 -32 9 2 17 10 17 17 0 16 -18 25 -28 15z"/>
 <path d="M4824 4587 c-11 -29 0 -92 16 -92 11 0 15 12 15 49 0 49 -19 74 -31 43z"/>
 <path d="M1617 4552 c-14 -15 -17 -40 -17 -122 l0 -103 146 -148 c100 -100 151 -145 163 -142 9 2 25 -5 35 -16 l19 -21 63 60 c34 33 74 64 89 70 14 5 110 10 213 10 201 1 235 8 214 47 -6 10 -93 100 -194 201 l-184 182 -266 0 c-244 0 -266 -1 -281 -18z"/>
 <path d="M4359 4405 c-54 -52 -105 -95 -112 -95 -7 0 -13 -9 -13 -19 0 -16 10 -20 60 -23 49 -4 63 -9 83 -32 22 -26 23 -35 23 -165 0 -137 0 -137 28 -164 18 -18 34 -25 48 -21 28 7 57 -22 50 -51 -4 -16 8 -35 57 -83 l62 -62 25 23 c14 12 40 39 58 60 l32 38 0 344 0 345 -151 0 -150 0 -100 -95z"/>
 <path d="M4790 4171 c0 -374 1 -369 -74 -449 -83 -89 -34 -64 61 30 77 76 91 96 87 115 -8 32 13 55 47 51 23 -2 39 8 79 47 27 27 50 54 50 60 0 6 -41 51 -91 100 -50 50 -97 102 -105 117 -9 18 -14 59 -14 126 0 86 -3 101 -20 117 -20 18 -20 17 -20 -314z"/>
 <path d="M5313 4258 c-220 -219 -243 -245 -243 -275 0 -25 -10 -44 -39 -76 -27 -29 -40 -54 -43 -77 -3 -32 -6 -35 -39 -38 -30 -3 -50 -18 -127 -95 l-92 -93 59 -58 59 -59 94 2 93 2 85 83 c47 46 95 89 107 95 14 7 94 11 220 11 186 0 199 1 210 20 9 14 13 118 13 395 1 421 4 405 -71 405 -42 0 -45 -2 -286 -242z"/>
 <path d="M7230 4450 c0 -15 5 -20 18 -18 9 2 17 10 17 18 0 8 -8 16 -17 18 -13 2 -18 -3 -18 -18z"/>
 <path d="M3392 4353 c2 -35 7 -48 18 -48 11 0 16 13 18 48 3 42 1 47 -18 47 -19 0 -21 -5 -18 -47z"/>
 <path d="M3782 4223 c3 -150 5 -178 18 -178 13 0 15 28 18 178 2 173 2 177 -18 177 -20 0 -20 -4 -18 -177z"/>
 <path d="M2687 4342 c-31 -33 -35 -52 -9 -52 23 0 76 55 68 69 -12 18 -31 13 -59 -17z"/>
 <path d="M3450 4350 c0 -16 7 -20 32 -20 30 0 31 0 13 20 -10 11 -24 20 -32 20 -7 0 -13 -9 -13 -20z"/>
 <path d="M3525 4350 c17 -19 29 -20 123 -18 91 3 105 5 108 21 2 15 -9 17 -123 17 l-126 0 18 -20z"/>
 <path d="M4174 4327 c-11 -29 0 -92 16 -92 11 0 15 12 15 49 0 49 -19 74 -31 43z"/>
 <path d="M2740 4301 c0 -11 120 -131 131 -131 5 0 9 32 9 70 l0 70 -70 0 c-38 0 -70 -4 -70 -9z"/>
 <path d="M3285 4298 c-11 -6 -59 -49 -107 -96 l-88 -86 -79 -6 -80 -5 29 -32 c42 -47 69 -46 124 5 57 53 81 62 157 62 80 0 89 10 89 99 0 75 -5 81 -45 59z"/>
 <path d="M3360 4239 c0 -48 5 -75 14 -85 11 -11 49 -14 173 -14 l158 0 -85 85 c-76 77 -88 85 -122 85 -25 0 -45 -7 -58 -20 -11 -11 -24 -20 -30 -20 -5 0 -19 9 -30 20 l-20 20 0 -71z"/>
 <path d="M3645 4230 c73 -73 112 -95 109 -62 -1 6 -2 41 -2 77 l-2 65 -92 0 -93 0 80 -80z"/>
 <path d="M3840 4290 c0 -11 6 -20 13 -20 8 0 22 9 32 20 18 20 17 20 -13 20 -25 0 -32 -4 -32 -20z"/>
 <path d="M3915 4290 c-15 -16 -15 -20 -3 -20 8 0 23 9 33 20 15 16 15 20 3 20 -8 0 -23 -9 -33 -20z"/>
 <path d="M3985 4290 c-15 -16 -15 -20 -3 -20 8 0 23 9 33 20 15 16 15 20 3 20 -8 0 -23 -9 -33 -20z"/>
 <path d="M4045 4290 c-18 -20 -17 -20 43 -20 55 0 62 2 62 20 0 17 -7 20 -43 20 -31 0 -49 -6 -62 -20z"/>
 <path d="M2709 4277 c0 -4 -1 -29 -1 -56 -1 -68 16 -83 87 -79 l56 3 -71 70 c-38 38 -70 66 -71 62z"/>
 <path d="M3850 4225 c-22 -27 -5 -37 19 -11 19 20 21 26 9 26 -9 0 -21 -7 -28 -15z"/>
 <path d="M3891 4196 c-24 -24 -39 -46 -34 -49 5 -4 32 16 58 43 29 30 43 50 34 50 -8 0 -34 -20 -58 -44z"/>
 <path d="M3937 4182 l-57 -57 123 -123 122 -122 113 0 c78 0 124 -5 149 -15 44 -19 53 -12 25 18 -35 37 -42 73 -42 207 0 118 -2 130 -19 140 -30 16 -116 13 -131 -5 -7 -8 -20 -15 -30 -15 -10 0 -23 7 -30 15 -9 11 -33 15 -89 15 l-77 0 -57 -58z"/>
 <path d="M2544 4129 c-7 -12 15 -31 28 -23 4 3 8 12 8 20 0 17 -26 19 -36 3z"/>
 <path d="M2676 4131 c-7 -11 18 -33 27 -24 4 3 7 12 7 20 0 15 -26 18 -34 4z"/>
 <path d="M2872 4123 c2 -10 10 -18 18 -18 8 0 16 8 18 18 2 12 -3 17 -18 17 -15 0 -20 -5 -18 -17z"/>
 <path d="M3326 4131 c-7 -11 18 -33 27 -24 4 3 7 12 7 20 0 15 -26 18 -34 4z"/>
 <path d="M3556 4112 c-146 -2 -171 -5 -182 -20 -9 -11 -13 -48 -14 -105 l0 -88 26 20 c24 19 40 21 151 21 l124 0 50 47 c45 42 49 50 43 77 -3 17 -11 36 -18 41 -6 6 -78 9 -180 7z"/>
 <path d="M2037 4032 c-42 -42 -77 -84 -77 -92 0 -8 12 -2 33 17 17 18 45 37 60 42 37 14 207 14 244 0 15 -5 98 -80 184 -165 85 -85 162 -154 169 -154 8 0 -6 21 -32 48 -25 26 -51 57 -57 69 -6 13 -11 76 -11 151 0 112 -2 131 -18 145 -16 15 -46 17 -218 17 l-199 0 -78 -78z"/>
 <path d="M2592 4090 c-8 -13 -12 -64 -12 -153 l0 -133 50 -55 49 -54 1 191 c0 173 -2 192 -18 207 -25 23 -54 21 -70 -3z"/>
 <path d="M2720 4092 c-12 -14 -15 -53 -15 -215 l0 -197 88 0 87 0 0 134 c0 79 -4 137 -10 141 -26 16 -30 43 -10 68 25 31 25 49 2 70 -25 23 -121 22 -142 -1z"/>
 <path d="M3110 4064 c-32 -30 -50 -55 -50 -70 0 -16 29 -53 93 -118 l94 -95 41 42 42 43 0 105 c0 132 -6 139 -104 139 -66 0 -68 -1 -116 -46z"/>
 <path d="M3852 4098 c-29 -29 -13 -62 66 -140 74 -73 79 -76 129 -80 l53 -3 -117 118 c-65 64 -118 117 -118 117 -1 0 -6 -5 -13 -12z"/>
 <path d="M920 4060 c0 -15 5 -20 18 -18 9 2 17 10 17 18 0 8 -8 16 -17 18 -13 2 -18 -3 -18 -18z"/>
 <path d="M2900 4060 c0 -15 7 -20 27 -20 25 0 26 0 8 20 -10 11 -22 20 -27 20 -4 0 -8 -9 -8 -20z"/>
 <path d="M7107 4074 c-14 -14 -7 -35 11 -32 9 2 17 10 17 17 0 16 -18 25 -28 15z"/>
 <path d="M2917 4012 c-39 -3 -48 -6 -45 -20 5 -25 155 -31 164 -7 4 9 5 17 3 19 -8 7 -76 11 -122 8z"/>
 <path d="M3811 4003 c35 -43 125 -123 138 -123 9 0 -16 32 -54 70 -38 39 -76 70 -83 70 -12 0 -12 -3 -1 -17z"/>
 <path d="M1897 4003 c-4 -3 -7 -39 -7 -79 0 -52 4 -73 14 -77 23 -9 26 2 26 85 0 58 -3 78 -13 78 -8 0 -17 -3 -20 -7z"/>
 <path d="M3722 3968 l-42 -43 -129 -5 c-111 -4 -134 -8 -158 -26 -26 -20 -28 -26 -31 -104 l-3 -83 86 81 c100 95 100 95 312 90 l142 -3 -62 66 c-34 37 -64 67 -67 68 -3 0 -24 -18 -48 -41z"/>
 <path d="M4996 3941 c-32 -32 -44 -51 -36 -56 14 -9 56 29 77 68 23 44 11 41 -41 -12z"/>
 <path d="M2005 3939 c-78 -72 -87 -58 227 -375 l278 -280 0 -192 0 -192 24 0 c16 0 46 23 97 75 40 41 74 82 75 91 1 9 12 26 23 38 20 21 21 34 21 223 l0 202 -26 3 c-36 4 -53 31 -37 58 19 29 -2 70 -36 70 -20 0 -63 37 -188 160 l-161 160 -126 0 -126 0 -45 -41z"/>
 <path d="M2900 3815 c0 -128 1 -135 20 -135 19 0 20 7 20 116 0 63 5 124 10 135 10 17 7 19 -20 19 l-30 0 0 -135z"/>
 <path d="M2982 3938 c-8 -8 -12 -53 -12 -135 l0 -123 85 0 85 0 46 42 45 42 -93 93 c-94 94 -126 111 -156 81z"/>
 <path d="M4891 3887 c-8 -10 -2 -21 23 -46 33 -32 56 -35 56 -7 0 12 -32 46 -56 59 -7 4 -17 1 -23 -6z"/>
 <path d="M1646 3641 c-120 -120 -214 -221 -209 -224 12 -8 437 417 432 432 -2 6 -102 -87 -223 -208z"/>
 <path d="M4446 3834 c-29 -29 -34 -54 -11 -54 17 0 65 49 65 67 0 21 -26 15 -54 -13z"/>
 <path d="M3469 3773 c-80 -78 -96 -112 -67 -141 15 -15 298 -17 298 -3 0 18 41 23 59 7 13 -12 52 -16 209 -18 l192 -3 -117 118 -118 117 -188 0 -189 0 -79 -77z"/>
 <path d="M4077 3735 c64 -63 123 -115 132 -115 9 0 -36 52 -99 115 -63 63 -122 115 -131 115 -11 0 29 -46 98 -115z"/>
 <path d="M4140 3735 l115 -115 50 0 50 0 -115 115 -115 115 -50 0 -50 0 115 -115z"/>
 <path d="M4259 3746 c62 -62 109 -102 118 -99 7 3 25 -3 41 -13 21 -14 42 -18 92 -15 36 1 69 7 75 12 6 6 -13 32 -50 70 -48 47 -65 59 -82 54 -31 -7 -67 28 -57 57 10 32 -11 38 -131 38 l-110 0 104 -104z"/>
 <path d="M3297 3802 c-33 -35 -33 -41 4 -70 l29 -24 0 61 c0 34 -1 61 -3 61 -2 0 -15 -13 -30 -28z"/>
 <path d="M4791 3736 c-63 -63 -89 -96 -81 -101 17 -11 198 171 184 185 -6 6 -40 -21 -103 -84z"/>
 <path d="M1662 3597 l-222 -222 101 -100 c56 -55 107 -114 115 -132 10 -24 14 -80 14 -210 l0 -177 172 -173 c136 -136 178 -173 198 -173 21 0 70 44 238 212 l212 213 0 210 c0 203 -1 212 -22 241 -13 16 -136 143 -274 282 -214 216 -254 252 -280 252 -25 0 -62 -33 -252 -223z"/>
 <path d="M4490 3782 c0 -14 116 -123 123 -115 4 4 -18 33 -50 65 -54 55 -73 68 -73 50z"/>
 <path d="M3198 3704 l-47 -44 -90 0 -91 0 0 -29 c0 -16 -4 -41 -10 -55 l-10 -26 109 0 c84 0 111 3 121 15 7 8 22 15 34 15 30 0 86 60 86 91 0 15 -12 36 -27 52 l-28 26 -47 -45z"/>
 <path d="M3325 3680 c-8 -14 3 -30 21 -30 8 0 14 9 14 20 0 21 -24 28 -35 10z"/>
 <path d="M5670 3670 c0 -15 5 -20 18 -18 9 2 17 10 17 18 0 8 -8 16 -17 18 -13 2 -18 -3 -18 -18z"/>
 <path d="M6125 3680 c-8 -14 3 -30 21 -30 8 0 14 9 14 20 0 21 -24 28 -35 10z"/>
 <path d="M6775 3681 c-8 -15 3 -31 21 -31 9 0 14 7 12 17 -4 20 -24 28 -33 14z"/>
 <path d="M2804 3638 c11 -15 12 -26 5 -39 -17 -33 7 -28 34 6 36 46 34 55 -14 55 -39 0 -40 -1 -25 -22z"/>
 <path d="M2875 3612 c-16 -26 -31 -50 -33 -54 -6 -13 73 -9 86 4 7 7 12 31 12 55 0 59 -26 57 -65 -5z"/>
 <path d="M4631 3647 c-8 -10 -2 -21 23 -46 33 -32 56 -35 56 -7 0 12 -32 46 -56 59 -7 4 -17 1 -23 -6z"/>
 <path d="M5230 3643 c-13 -9 -47 -39 -74 -67 -114 -113 -119 -116 -205 -116 l-78 0 116 -115 116 -114 105 -3 c91 -3 107 -1 123 15 11 11 27 17 37 14 14 -3 56 33 159 138 139 141 141 143 141 187 0 76 -7 78 -226 78 -162 0 -193 -2 -214 -17z"/>
 <path d="M5717 3640 c-9 -11 -17 -34 -17 -51 0 -17 -5 -40 -11 -52 -6 -12 -75 -86 -152 -164 l-142 -143 395 -1 c217 -1 402 -2 410 -3 8 0 26 7 39 16 29 22 45 23 61 3 10 -12 39 -15 139 -15 l126 0 -200 200 c-145 145 -204 198 -217 194 -10 -3 -26 4 -37 15 -20 20 -33 21 -199 21 -166 0 -179 -1 -195 -20z"/>
 <path d="M2737 3612 c-29 -30 -36 -62 -14 -62 22 0 70 57 64 74 -9 23 -20 20 -50 -12z"/>
 <path d="M3285 3591 c-38 -40 -39 -41 -14 -41 32 0 62 31 57 60 -3 19 -6 18 -43 -19z"/>
 <path d="M3360 3606 c0 -49 24 -56 183 -56 140 0 147 1 147 20 0 19 -7 20 -132 20 -115 0 -137 3 -165 20 l-33 20 0 -24z"/>
 <path d="M3714 3607 c-3 -8 -4 -30 -2 -49 2 -25 8 -33 23 -33 17 0 20 7 20 45 -1 34 -5 46 -18 48 -9 2 -20 -3 -23 -11z"/>
 <path d="M4365 3609 c-7 -11 87 -109 104 -109 28 0 18 27 -25 71 -48 49 -67 58 -79 38z"/>
 <path d="M4580 3600 c-8 -5 -37 -10 -64 -10 -48 0 -49 0 -31 -20 24 -26 75 -26 109 1 35 27 23 53 -14 29z"/>
 <path d="M3780 3570 c0 -19 7 -20 222 -20 220 0 221 0 203 20 -17 19 -31 20 -222 20 -196 0 -203 -1 -203 -20z"/>
 <path d="M4240 3570 c34 -27 59 -27 35 0 -10 11 -28 20 -39 20 -20 0 -20 -1 4 -20z"/>
 <path d="M4305 3570 c10 -11 29 -20 42 -20 21 0 22 2 11 20 -8 13 -24 20 -42 20 -28 0 -29 0 -11 -20z"/>
 <path d="M4607 3554 c-18 -16 -40 -24 -64 -24 -35 0 -35 -1 -28 -32 4 -18 9 -95 12 -170 4 -129 5 -138 24 -138 18 0 19 8 19 140 l0 140 42 46 c46 49 42 79 -5 38z"/>
 <path d="M2770 3353 c0 -205 0 -206 20 -188 19 17 20 31 20 195 0 170 -5 200 -32 200 -4 0 -8 -93 -8 -207z"/>
 <path d="M3195 3550 c-8 -14 3 -30 21 -30 8 0 14 9 14 20 0 21 -24 28 -35 10z"/>
 <path d="M3324 3549 c-9 -15 11 -33 30 -26 9 4 13 13 10 22 -7 17 -30 20 -40 4z"/>
 <path d="M4720 3551 c0 -12 58 -61 73 -61 6 0 -4 16 -23 35 -34 35 -50 43 -50 26z"/>
 <path d="M4635 3510 l-40 -41 -3 -134 c-3 -123 -2 -137 17 -161 11 -14 18 -31 15 -37 -2 -7 34 -50 80 -96 l84 -84 27 22 c15 11 33 21 40 21 20 0 48 -38 41 -56 -15 -39 9 -44 189 -44 204 0 192 -9 197 147 3 79 8 106 21 121 9 10 17 22 17 25 0 4 -45 7 -100 7 -68 0 -110 5 -128 14 -15 8 -79 67 -142 130 -92 93 -120 116 -143 116 -19 0 -43 14 -76 45 -26 25 -50 45 -53 45 -2 0 -22 -18 -43 -40z"/>
 <path d="M2840 3373 c0 -156 0 -157 19 -138 17 17 20 38 23 158 3 136 3 137 -19 137 -23 0 -23 -1 -23 -157z"/>
 <path d="M2917 3512 c-14 -15 -17 -41 -17 -135 0 -64 3 -117 8 -117 9 0 262 253 262 263 0 4 -53 7 -118 7 -103 0 -121 -3 -135 -18z"/>
 <path d="M3245 3510 c-10 -11 -27 -19 -37 -18 -11 2 -61 -41 -143 -122 -69 -69 -125 -128 -125 -132 0 -5 88 -8 195 -8 l195 0 0 133 c0 117 -2 136 -18 150 -25 22 -45 21 -67 -3z"/>
 <path d="M3377 3512 c-14 -15 -17 -42 -17 -150 0 -99 3 -132 13 -132 6 0 196 0 420 0 245 0 423 -4 446 -10 20 -5 48 -21 61 -35 13 -14 34 -25 47 -25 23 0 23 1 23 123 l0 123 -63 62 -63 62 -230 0 c-218 0 -232 -1 -249 -20 -10 -11 -23 -20 -30 -20 -7 0 -20 9 -30 20 -17 18 -31 20 -165 20 -130 0 -149 -2 -163 -18z"/>
 <path d="M4290 3525 c0 -2 21 -26 46 -52 25 -27 50 -58 55 -71 5 -13 9 -73 9 -133 0 -102 1 -109 20 -109 19 0 20 7 20 111 0 61 -5 120 -11 132 -26 51 -139 150 -139 122z"/>
 <path d="M4403 3471 l57 -60 0 -125 c0 -69 4 -126 8 -126 24 0 33 51 30 180 l-3 135 -26 3 c-15 2 -37 14 -50 28 -12 13 -34 24 -47 24 -23 0 -21 -5 31 -59z"/>
 <path d="M1375 3421 c-8 -15 3 -31 21 -31 9 0 14 7 12 17 -4 20 -24 28 -33 14z"/>
 <path d="M851 2846 c-288 -288 -519 -526 -514 -529 5 -3 245 230 532 517 288 288 519 526 514 529 -5 3 -245 -230 -532 -517z"/>
 <path d="M2807 3152 c-72 -72 -95 -112 -64 -112 16 0 177 161 177 178 0 30 -41 6 -113 -66z"/>
 <path d="M5342 3213 c2 -10 10 -18 18 -18 8 0 16 8 18 18 2 12 -3 17 -18 17 -15 0 -20 -5 -18 -17z"/>
 <path d="M6254 3219 c-8 -14 11 -33 25 -25 6 4 11 14 11 22 0 16 -26 19 -36 3z"/>
 <path d="M6582 3213 c2 -10 10 -18 18 -18 22 0 18 29 -3 33 -14 3 -18 -1 -15 -15z"/>
 <path d="M6774 3219 c-8 -14 11 -33 25 -25 6 4 11 14 11 22 0 16 -26 19 -36 3z"/>
 <path d="M2893 3141 l-52 -57 272 -272 c185 -185 279 -272 293 -272 12 0 27 -7 34 -15 11 -13 60 -15 330 -15 273 0 319 2 324 15 3 8 18 15 33 15 23 0 50 22 136 108 l107 107 0 72 c0 49 -5 81 -17 101 -17 29 -17 31 0 50 11 12 17 35 17 64 0 39 -5 50 -31 72 l-31 26 -462 0 c-402 0 -464 2 -484 16 -12 8 -22 22 -22 30 0 12 -32 14 -197 13 l-198 -1 -52 -57z"/>
 <path d="M3375 3180 c18 -19 31 -20 469 -20 449 0 451 1 426 20 -24 19 -44 20 -469 20 -443 0 -444 0 -426 -20z"/>
 <path d="M5392 3185 c-7 -8 -24 -15 -37 -15 -36 0 -45 -28 -45 -138 0 -130 2 -132 137 -132 l101 0 71 65 71 65 156 0 157 0 86 85 86 85 -385 -1 c-325 0 -387 -2 -398 -14z"/>
 <path d="M6121 3109 l-94 -91 84 -84 c91 -91 112 -103 179 -97 41 3 52 11 128 86 45 45 82 89 82 97 0 9 -33 47 -72 86 -101 98 -104 99 -123 80 -21 -20 -49 -21 -65 -1 -7 8 -15 15 -19 15 -3 -1 -48 -42 -100 -91z"/>
 <path d="M4502 3157 c-17 -20 -5 -27 50 -27 42 0 49 3 46 18 -4 22 -79 30 -96 9z"/>
 <path d="M4400 3112 c0 -16 9 -37 20 -47 20 -18 20 -17 20 28 0 40 -3 47 -20 47 -15 0 -20 -7 -20 -28z"/>
 <path d="M4460 3084 c0 -55 11 -84 32 -84 4 0 8 24 8 53 0 41 -5 58 -20 72 -20 18 -20 17 -20 -41z"/>
 <path d="M4590 3051 c0 -43 4 -60 15 -65 20 -7 19 -45 -2 -68 -16 -18 -10 -25 115 -152 114 -114 132 -137 132 -164 0 -30 2 -32 35 -32 55 0 75 27 75 103 0 55 -4 70 -29 103 -48 65 -87 97 -110 89 -27 -8 -64 28 -56 56 5 16 -11 38 -76 105 -46 46 -87 84 -91 84 -4 0 -8 -27 -8 -59z"/>
 <path d="M4530 3050 c0 -43 3 -50 20 -50 17 0 20 7 20 50 0 43 -3 50 -20 50 -17 0 -20 -7 -20 -50z"/>
 <path d="M2797 3044 l-27 -23 0 -174 c0 -143 3 -177 15 -187 8 -7 15 -23 15 -35 0 -14 19 -40 50 -69 l49 -46 238 0 237 0 -39 41 c-22 22 -146 148 -275 279 l-236 238 -27 -24z"/>
 <path d="M4400 3027 c0 -20 5 -27 20 -27 11 0 20 4 20 8 0 5 -9 17 -20 27 -20 18 -20 17 -20 -8z"/>
 <path d="M2643 2948 c-40 -42 -71 -82 -71 -93 0 -19 153 -185 170 -185 5 0 8 79 8 175 0 210 0 211 -107 103z"/>
 <path d="M4366 2961 c-14 -22 26 -32 125 -29 90 3 104 5 107 21 3 15 -7 17 -112 17 -63 0 -117 -4 -120 -9z"/>
 <path d="M4812 2945 c-25 -28 -29 -55 -9 -55 16 0 67 52 67 68 0 21 -36 13 -58 -13z"/>
 <path d="M4400 2848 c0 -60 0 -61 20 -43 14 13 20 31 20 62 0 36 -3 43 -20 43 -18 0 -20 -7 -20 -62z"/>
 <path d="M4460 2878 l0 -33 20 25 c25 32 25 40 0 40 -16 0 -20 -7 -20 -32z"/>
 <path d="M4516 2882 c-8 -15 -23 -36 -35 -46 -20 -18 -21 -29 -21 -173 l0 -153 185 0 c178 0 185 1 185 20 0 15 -7 20 -27 20 -21 0 -50 23 -130 103 l-103 103 0 65 c0 86 -26 116 -54 61z"/>
 <path d="M5287 2904 c-4 -4 -7 -43 -7 -86 0 -70 2 -79 18 -76 14 3 17 15 17 82 0 73 -9 99 -28 80z"/>
 <path d="M4860 2894 c0 -4 27 -35 60 -70 l60 -62 0 -76 c0 -63 4 -80 20 -96 41 -41 93 -21 185 70 l70 69 -3 75 -4 75 -176 3 c-97 2 -185 7 -194 12 -10 4 -18 5 -18 0z"/>
 <path d="M2510 2856 c0 -15 24 -28 34 -19 13 14 5 33 -14 33 -11 0 -20 -6 -20 -14z"/>
 <path d="M4593 2811 c4 -52 7 -56 93 -141 87 -86 144 -119 144 -85 0 32 -31 72 -136 175 l-106 105 5 -54z"/>
 <path d="M2295 2600 c-164 -164 -209 -215 -209 -235 0 -20 40 -65 180 -205 l179 -180 2 -142 c2 -77 4 -142 6 -144 2 -2 68 62 147 141 l145 145 3 295 c3 284 2 297 -17 322 -12 14 -18 30 -15 35 4 6 -31 48 -77 94 -61 61 -90 84 -109 84 -19 0 -72 -47 -235 -210z"/>
 <path d="M5358 2799 c-10 -5 -18 -21 -18 -35 0 -13 -9 -32 -20 -41 -11 -10 -20 -23 -20 -30 0 -7 -42 -55 -92 -107 -87 -88 -96 -95 -143 -101 -72 -11 -85 -26 -85 -99 0 -40 6 -70 16 -86 9 -14 197 -206 418 -427 l401 -403 129 0 130 0 206 205 205 205 -465 465 -465 465 -90 0 c-50 0 -98 -5 -107 -11z"/>
 <path d="M4417 2772 c-14 -15 -17 -41 -17 -140 0 -115 1 -122 20 -122 19 0 20 7 20 140 0 77 -2 140 -3 140 -2 0 -11 -8 -20 -18z"/>
 <path d="M4267 2622 c-53 -53 -97 -101 -97 -105 0 -4 45 -7 100 -7 l100 0 0 105 c0 58 -1 105 -3 105 -1 0 -46 -44 -100 -98z"/>
 <path d="M5189 2635 c-82 -81 -88 -85 -130 -85 -38 0 -45 -3 -45 -20 0 -17 7 -20 40 -20 36 0 47 7 134 93 52 52 93 99 91 105 -2 6 -43 -27 -90 -73z"/>
 <path d="M2747 2644 c-14 -15 -6 -34 14 -34 14 0 19 5 17 17 -3 18 -20 27 -31 17z"/>
 <path d="M2770 2124 l0 -468 287 -288 288 -288 63 63 63 62 134 5 135 5 90 90 90 90 0 283 0 284 -64 66 c-43 45 -73 67 -89 68 -20 1 -47 -21 -121 -96 l-96 -97 0 -135 c0 -108 3 -138 15 -148 19 -16 19 -54 0 -70 -19 -16 -45 -9 -61 16 -13 18 -12 24 6 47 18 22 20 40 20 162 l0 138 98 99 c68 70 97 107 97 124 1 32 -285 321 -314 316 -10 -1 -24 4 -31 13 -10 13 -46 15 -225 15 -117 0 -226 3 -243 6 -17 3 -56 29 -86 56 l-56 50 0 -468z"/>
 <path d="M4957 2573 c-4 -3 -7 -26 -7 -50 0 -36 3 -43 20 -43 17 0 20 7 20 50 0 35 -4 50 -13 50 -8 0 -17 -3 -20 -7z"/>
 <path d="M4850 2530 c0 -17 7 -20 40 -20 33 0 40 3 40 20 0 17 -7 20 -40 20 -33 0 -40 -3 -40 -20z"/>
 <path d="M3397 2514 c-14 -15 -6 -34 14 -34 14 0 19 5 17 17 -3 18 -20 27 -31 17z"/>
 <path d="M4110 2505 c-10 -12 -9 -16 5 -21 23 -9 40 10 22 25 -11 9 -17 8 -27 -4z"/>
 <path d="M3595 2330 c114 -114 156 -150 175 -150 19 0 61 36 175 150 l150 150 -325 0 -325 0 150 -150z"/>
 <path d="M4158 2468 c-3 -7 -17 -13 -32 -13 -38 -2 -316 -278 -316 -314 0 -15 22 -47 65 -92 l65 -69 0 -283 0 -282 215 215 215 216 0 317 0 317 -104 0 c-73 0 -106 -4 -108 -12z"/>
 <path d="M4400 2174 c0 -203 -4 -313 -11 -327 -6 -12 -111 -122 -232 -244 -122 -122 -218 -226 -214 -230 5 -4 118 103 253 238 l244 245 0 312 c0 305 0 312 -20 312 -20 0 -20 -7 -20 -306z"/>
 <path d="M4850 2145 c0 -270 3 -341 14 -363 8 -15 79 -91 159 -169 l145 -143 308 0 309 0 -413 413 -412 413 0 78 c0 90 -10 105 -72 106 l-38 0 0 -335z"/>
 <path d="M2025 2381 c-8 -15 3 -31 21 -31 9 0 14 7 12 17 -4 20 -24 28 -33 14z"/>
 <path d="M270 2302 c0 -23 40 -62 63 -62 25 0 21 23 -11 53 -33 31 -52 35 -52 9z"/>
 <path d="M7622 2303 c2 -10 10 -18 18 -18 22 0 18 29 -3 33 -14 3 -18 -1 -15 -15z"/>
 <path d="M204 2179 c-8 -14 11 -33 25 -25 6 4 11 14 11 22 0 16 -26 19 -36 3z"/>
 <path d="M3750 2140 c0 -15 5 -20 18 -18 9 2 17 10 17 18 0 8 -8 16 -17 18 -13 2 -18 -3 -18 -18z"/>
 <path d="M6580 1780 c0 -15 5 -20 18 -18 9 2 17 10 17 18 0 8 -8 16 -17 18 -13 2 -18 -3 -18 -18z"/>
 <path d="M1381 1730 c-16 -9 -6 -30 15 -30 15 0 20 25 6 34 -4 2 -14 1 -21 -4z"/>
 <path d="M2415 1660 c-8 -14 3 -30 21 -30 8 0 14 9 14 20 0 21 -24 28 -35 10z"/>
 <path d="M3527 1604 c-14 -15 -6 -34 14 -34 14 0 19 5 17 17 -3 18 -20 27 -31 17z"/>
 <path d="M4313 1343 c-18 -6 -16 -30 2 -37 9 -3 18 1 22 10 7 18 -7 33 -24 27z"/>
 <path d="M5995 1270 c-8 -14 3 -30 21 -30 8 0 14 9 14 20 0 21 -24 28 -35 10z"/>
 <path d="M1505 750 c-8 -14 3 -30 21 -30 8 0 14 9 14 20 0 21 -24 28 -35 10z"/>
 <path d="M1960 480 c0 -15 5 -20 18 -18 9 2 17 10 17 18 0 8 -8 16 -17 18 -13 2 -18 -3 -18 -18z"/>
 <path d="M3195 490 c-8 -14 3 -30 21 -30 8 0 14 9 14 20 0 21 -24 28 -35 10z"/>
 <path d="M4496 485 c-3 -9 1 -18 10 -22 19 -7 39 11 30 26 -10 16 -33 13 -40 -4z"/>
 <path d="M4630 480 c0 -15 5 -20 18 -18 9 2 17 10 17 18 0 8 -8 16 -17 18 -13 2 -18 -3 -18 -18z"/>
 </g>
<g id="layer2" fill="#000000" stroke="none">
 <path d="M1622 7538 c-30 -30 2 -87 41 -73 42 17 42 14 45 -867 l2 -838 -110 0 c-63 0 -121 5 -133 11 -12 6 -61 48 -108 93 -48 44 -101 91 -118 104 l-31 24 0 297 0 298 -29 39 c-16 21 -83 93 -149 158 -66 65 -118 124 -116 131 3 6 -4 22 -14 35 -17 22 -23 23 -46 12 -44 -20 -30 -82 19 -82 13 0 72 -52 165 -145 l145 -145 2 -297 c3 -283 2 -297 -17 -315 -17 -16 -41 -18 -269 -18 -245 0 -250 0 -265 22 -12 17 -15 59 -15 227 0 194 1 207 20 227 14 15 19 29 14 43 -8 26 -50 38 -70 21 -19 -16 -19 -59 0 -66 13 -5 15 -40 15 -225 0 -216 0 -218 24 -246 23 -27 28 -28 136 -31 l112 -4 98 -94 c92 -87 102 -94 139 -94 28 0 48 -7 61 -20 19 -19 20 -33 20 -295 0 -265 -1 -276 -21 -296 -12 -12 -18 -27 -15 -36 4 -11 -28 -49 -102 -123 -59 -59 -127 -129 -150 -154 l-43 -46 3 -425 3 -425 243 -243 c187 -187 242 -248 242 -267 0 -37 -1026 -1063 -1065 -1065 -45 -2 -57 -37 -25 -77 19 -25 19 -26 0 -43 -10 -9 -23 -14 -29 -11 -33 21 -68 -43 -39 -72 29 -29 93 6 72 39 -3 6 2 19 11 29 14 16 21 17 42 7 22 -10 28 -8 44 11 13 17 16 29 9 46 -7 21 42 73 523 554 l532 532 105 -105 105 -105 5 -200 5 -200 178 -178 c136 -136 177 -183 177 -202 0 -20 -64 -90 -291 -318 -203 -203 -298 -292 -313 -292 -49 0 -65 -62 -21 -82 21 -9 28 -8 46 8 11 10 18 26 16 35 -7 26 573 602 607 604 21 0 60 -34 201 -175 l175 -176 0 -141 c0 -113 -3 -143 -15 -153 -8 -7 -15 -22 -15 -34 0 -30 -836 -866 -866 -866 -29 0 -48 -25 -40 -54 12 -47 75 -36 81 15 2 17 132 153 424 446 231 233 423 423 426 423 3 0 5 -152 5 -337 l0 -337 -207 -208 c-169 -170 -212 -208 -235 -208 -30 0 -52 -28 -42 -55 17 -44 84 -35 84 12 0 23 36 64 205 233 154 153 208 214 215 240 6 19 10 174 10 346 0 269 2 313 16 324 8 7 14 23 12 35 -2 16 32 57 135 160 l137 140 0 -155 0 -154 290 -291 290 -290 -63 -63 -62 -62 -3 -209 c-2 -168 -6 -212 -18 -221 -29 -25 -10 -70 31 -70 41 0 60 45 30 70 -12 10 -15 47 -15 217 l0 204 57 60 57 60 128 -128 128 -128 293 -3 292 -3 143 -142 c97 -97 142 -149 142 -164 0 -12 10 -29 22 -37 19 -13 25 -14 43 -2 38 25 26 76 -18 76 -14 0 -71 50 -162 139 -77 77 -153 144 -168 150 -18 7 -133 11 -304 11 l-276 0 -124 122 -124 123 60 57 59 58 117 0 c65 0 126 5 138 11 12 6 59 48 104 92 45 45 85 79 87 76 3 -3 -4 -24 -16 -48 -38 -77 -37 -77 347 -461 238 -238 345 -352 345 -366 0 -44 60 -59 84 -21 15 23 -3 51 -35 55 -16 2 -142 121 -376 355 -333 332 -353 354 -353 388 0 42 27 73 50 59 8 -5 81 -10 161 -10 120 0 149 -3 159 -15 17 -21 49 -15 66 10 27 41 -35 88 -66 50 -10 -12 -42 -15 -168 -15 l-156 0 247 249 247 248 0 322 0 321 185 0 185 0 0 -352 0 -352 153 -154 c83 -85 166 -161 184 -168 25 -11 100 -14 340 -14 l308 0 78 -78 c42 -42 77 -85 77 -94 0 -33 12 -48 41 -48 35 0 55 30 39 60 -11 20 -21 24 -49 20 -8 -1 -45 29 -83 67 l-69 68 116 5 115 5 210 210 209 209 30 -28 c16 -16 27 -34 24 -41 -14 -39 45 -73 75 -43 27 27 -2 84 -37 73 -11 -3 -28 6 -46 25 l-30 31 206 205 206 204 335 0 c289 0 337 -2 342 -15 7 -18 47 -20 64 -3 34 34 -6 90 -48 68 -11 -6 -20 -15 -20 -20 0 -6 -129 -10 -342 -10 l-342 0 -208 -207 -208 -208 -468 468 c-453 453 -469 467 -507 468 -84 4 -111 3 -147 -3 -37 -7 -38 -6 -38 23 l0 29 111 0 110 0 59 55 c31 31 73 60 91 65 41 12 207 12 267 1 36 -7 59 -24 136 -100 l93 -91 60 0 c50 0 66 5 99 29 57 42 164 157 164 176 0 10 -37 55 -82 101 l-82 84 96 0 c76 0 97 -3 102 -15 7 -19 50 -19 66 0 8 10 30 15 65 15 35 0 57 -5 65 -15 20 -24 59 -19 72 10 10 22 9 29 -10 48 -22 21 -23 22 -53 5 -38 -22 -112 -23 -144 -2 -14 9 -31 14 -38 11 -16 -6 -412 385 -401 396 4 4 130 7 281 7 260 0 274 -1 293 -20 25 -25 32 -25 61 -1 21 16 22 22 11 45 -13 30 -52 36 -72 11 -19 -22 -575 -22 -584 0 -7 19 -50 19 -66 0 -10 -12 -45 -15 -195 -15 -164 0 -184 2 -198 18 -15 17 -17 58 -17 393 1 295 3 378 14 392 11 15 31 17 152 17 l139 0 226 -225 227 -225 311 0 c193 0 311 -4 311 -10 0 -5 9 -14 20 -20 42 -22 82 34 48 68 -17 17 -57 15 -64 -3 -5 -13 -49 -15 -307 -15 l-301 0 -220 219 c-122 121 -234 225 -249 230 -16 6 -84 11 -153 11 -117 0 -124 1 -124 20 0 19 7 20 231 20 l231 0 71 -65 71 -65 433 0 c418 0 434 -1 453 -20 38 -38 94 14 60 56 -16 18 -59 18 -66 -1 -5 -13 -63 -15 -436 -15 l-430 0 -62 60 -62 59 436 436 c288 288 442 435 456 435 45 0 63 63 22 79 -31 12 -63 -9 -64 -42 -1 -21 -95 -120 -433 -458 l-431 -432 -23 21 c-39 37 -72 42 -268 42 -104 0 -189 3 -189 8 0 4 33 41 74 81 110 110 109 146 -8 261 -47 46 -66 72 -66 90 0 20 47 72 211 235 116 116 217 222 225 237 20 38 17 67 -11 113 -50 82 -79 46 491 616 359 359 521 515 533 512 9 -2 25 5 35 16 16 18 17 25 8 46 -20 43 -82 28 -82 -19 0 -14 -172 -193 -515 -536 l-515 -515 0 -49 c0 -33 6 -56 20 -73 12 -15 20 -41 20 -62 0 -33 -15 -51 -222 -258 -142 -142 -230 -223 -243 -223 -12 0 -74 54 -162 142 l-143 143 515 515 515 516 1 475 c2 556 0 517 23 551 14 21 15 31 6 47 -12 23 -49 28 -68 9 -17 -17 -15 -57 3 -64 13 -5 15 -70 15 -502 l0 -497 -507 -507 c-280 -280 -510 -503 -512 -497 -2 6 61 76 140 155 143 143 144 145 144 189 0 45 -1 46 -145 189 -80 79 -152 146 -160 149 -10 3 78 99 281 303 163 165 304 310 313 324 14 21 16 66 16 357 0 211 4 333 10 333 16 0 23 49 10 65 -20 24 -59 19 -72 -10 -9 -20 -8 -28 6 -44 15 -17 17 -51 16 -352 l0 -334 -307 -307 c-169 -169 -311 -304 -316 -301 -5 3 -22 -4 -38 -16 -27 -20 -40 -21 -235 -21 -198 0 -209 1 -230 21 -22 21 -25 21 -49 5 -27 -18 -32 -45 -13 -64 17 -17 53 -15 68 3 10 13 49 15 234 15 l221 0 -147 -147 -147 -147 -46 43 c-81 75 -104 81 -316 81 -157 0 -188 2 -193 15 -3 10 -19 15 -46 15 l-40 0 0 213 c0 205 1 215 21 233 19 17 41 19 263 21 132 2 254 3 270 3 22 0 47 18 110 80 61 59 89 80 109 80 47 0 59 58 16 81 -29 15 -59 -6 -59 -40 0 -22 -17 -44 -80 -105 l-80 -76 -266 0 c-164 0 -273 -4 -285 -10 -19 -11 -19 -3 -19 394 0 359 2 406 16 414 20 11 15 61 -8 76 -39 24 -79 -44 -44 -74 14 -11 16 -86 16 -650 0 -607 -1 -638 -18 -654 -17 -15 -49 -16 -299 -14 l-281 3 140 143 c76 79 143 155 149 169 5 14 9 268 9 607 0 507 2 585 15 596 30 25 11 70 -30 70 -41 0 -60 -45 -30 -70 13 -11 15 -91 15 -609 l0 -596 -143 -143 c-78 -78 -149 -142 -157 -142 -8 0 48 62 123 138 l137 139 0 210 c0 182 2 212 16 217 20 8 15 55 -8 70 -13 8 -23 8 -35 0 -24 -15 -29 -62 -9 -70 24 -9 24 -388 0 -424 -9 -14 -73 -82 -143 -152 -101 -103 -131 -128 -154 -128 -15 0 -30 -7 -33 -15 -5 -11 -23 -15 -76 -15 -72 0 -109 -13 -142 -49 -13 -14 -23 -18 -35 -12 -9 5 -26 5 -40 0 -19 -8 -23 -15 -19 -44 5 -46 -32 -84 -91 -92 -53 -7 -54 8 0 60 22 22 45 51 50 64 5 14 9 249 9 530 l0 505 142 144 c87 88 147 143 156 139 7 -3 22 0 33 5 26 15 26 66 -1 75 -34 11 -60 -4 -60 -33 0 -22 -28 -55 -136 -162 -74 -74 -142 -147 -150 -162 -12 -22 -14 -114 -14 -535 l0 -509 -40 -39 c-32 -32 -42 -36 -54 -26 -23 19 -56 4 -63 -30 l-5 -29 -145 0 c-129 0 -148 2 -170 20 -14 11 -30 17 -35 14 -6 -4 -61 45 -124 107 l-114 114 0 466 c0 403 2 468 15 479 18 15 19 42 3 58 -17 17 -53 15 -68 -3 -13 -16 -6 -65 10 -65 6 0 10 -167 10 -463 l0 -464 29 -39 c16 -21 68 -77 115 -124 47 -46 86 -88 86 -92 0 -5 -34 -8 -77 -8 l-76 0 -117 -115 c-64 -63 -119 -115 -123 -115 -4 0 -7 92 -7 203 l0 204 -29 39 c-16 21 -97 106 -180 189 -101 100 -151 157 -151 171 0 12 -7 27 -15 34 -19 15 -61 6 -69 -16 -9 -24 22 -67 44 -61 13 3 67 -45 196 -174 l179 -179 3 -205 c2 -113 0 -205 -4 -205 -5 0 -60 52 -124 115 l-117 115 -126 0 -127 0 0 839 c0 800 -1 839 -19 862 -10 13 -16 29 -14 36 13 38 -46 70 -75 41z m46 -31 c2 -10 -3 -17 -12 -17 -18 0 -29 16 -21 31 9 14 29 6 33 -14z m2345 9 c7 -16 -1 -26 -20 -26 -7 0 -13 9 -13 20 0 23 25 27 33 6z m1952 -6 c0 -8 -8 -16 -17 -18 -13 -2 -18 3 -18 18 0 15 5 20 18 18 9 -2 17 -10 17 -18z m453 -3 c2 -10 -3 -17 -12 -17 -18 0 -29 16 -21 31 9 14 29 6 33 -14z m-2080 -194 c-2 -10 -10 -18 -18 -18 -8 0 -16 8 -18 18 -2 12 3 17 18 17 15 0 20 -5 18 -17z m-780 -66 c2 -12 -3 -17 -17 -17 -12 0 -21 6 -21 13 0 31 32 34 38 4z m-1110 -260 c2 -10 -3 -17 -12 -17 -18 0 -29 16 -21 31 9 14 29 6 33 -14z m-1558 -61 c0 -8 -5 -18 -11 -22 -14 -8 -33 11 -25 25 10 16 36 13 36 -3z m6308 -69 c2 -10 -3 -17 -12 -17 -18 0 -29 16 -21 31 9 14 29 6 33 -14z m-3250 -130 c2 -12 -3 -17 -17 -17 -12 0 -21 6 -21 13 0 31 32 34 38 4z m1170 -64 c-2 -10 -10 -18 -18 -18 -8 0 -16 8 -18 18 -2 12 3 17 18 17 15 0 20 -5 18 -17z m-4490 -196 c2 -10 -3 -17 -12 -17 -18 0 -29 16 -21 31 9 14 29 6 33 -14z m1240 -130 c2 -12 -3 -17 -17 -17 -12 0 -21 6 -21 13 0 31 32 34 38 4z m2930 -194 c5 -18 -28 -29 -38 -12 -5 7 -6 17 -3 22 7 12 35 5 41 -10z m517 -3 c0 -8 -8 -16 -17 -18 -13 -2 -18 3 -18 18 0 15 5 20 18 18 9 -2 17 -10 17 -18z m177 -147 c186 -185 186 -168 1 -355 -104 -105 -143 -138 -162 -138 -20 0 -63 37 -183 157 l-158 158 142 142 c95 95 150 143 164 143 12 0 27 7 34 15 7 8 15 15 18 15 3 0 68 -62 144 -137z m-4274 -46 c2 -12 -3 -17 -17 -17 -12 0 -21 6 -21 13 0 31 32 34 38 4z m2470 1 c3 -15 -4 -18 -46 -18 -55 0 -67 7 -50 27 17 21 92 13 96 -9z m711 9 c16 -20 3 -27 -51 -27 -45 0 -62 13 -41 33 12 12 80 7 92 -6z m-3227 -44 c25 -23 24 -100 -2 -132 -17 -20 -27 -23 -62 -18 -35 5 -53 17 -122 86 l-81 81 124 0 c102 0 128 -3 143 -17z m177 -68 l86 -85 -92 0 c-80 0 -96 3 -113 20 -39 39 -22 148 24 150 5 0 48 -38 95 -85z m2221 80 c0 -14 -65 -35 -107 -35 -28 0 -58 -7 -71 -16 -38 -26 -47 -4 -10 27 30 26 40 28 111 29 42 0 77 -2 77 -5z m722 -12 c17 -15 18 -39 18 -328 0 -269 -2 -314 -15 -319 -8 -3 -15 -18 -15 -34 0 -29 -51 -87 -97 -111 -15 -7 -130 -11 -357 -11 l-336 0 0 317 0 318 77 77 c49 49 86 78 99 78 12 0 27 7 34 15 11 13 56 15 293 15 247 0 283 -2 299 -17z m565 -13 c28 -16 60 -42 72 -58 l20 -28 -144 -144 -144 -144 -24 22 c-13 12 -30 22 -37 22 -8 0 -56 42 -107 92 l-93 93 0 73 c0 44 5 78 13 87 9 11 51 14 202 15 l190 0 52 -30z m-1315 -64 c-34 -33 -66 -74 -71 -89 -7 -18 -11 -144 -11 -333 l0 -304 -34 0 c-18 0 -39 7 -46 15 -7 8 -22 15 -34 15 -14 0 -65 44 -149 128 l-127 128 31 29 c17 17 37 42 45 57 19 36 18 102 -1 118 -8 7 -15 25 -15 41 0 24 4 29 25 29 41 0 87 24 128 68 25 25 45 38 56 35 24 -6 51 22 51 52 0 32 27 45 93 45 39 0 62 6 78 19 13 11 28 17 32 14 5 -3 -18 -33 -51 -67z m828 5 c0 -33 4 -70 9 -83 5 -13 47 -64 94 -113 120 -128 120 -126 -18 -265 -60 -60 -113 -110 -117 -110 -5 0 -8 142 -8 315 0 308 0 315 20 315 18 0 20 -7 20 -59z m-1030 7 c29 -31 31 -48 6 -48 -15 0 -66 52 -66 68 0 22 31 12 60 -20z m-83 -104 c-40 -36 -56 -44 -88 -44 -32 0 -39 3 -39 20 0 16 7 20 38 20 38 0 74 18 102 51 10 12 18 15 25 8 7 -7 -6 -25 -38 -55z m-156 19 c7 -179 4 -201 -25 -190 -13 5 -16 24 -16 110 0 57 3 107 7 110 18 18 33 5 34 -30z m2185 -302 c1 -21 -32 -60 -175 -203 -114 -116 -183 -178 -196 -178 -27 0 -45 -18 -45 -46 0 -13 -4 -26 -10 -29 -6 -4 -10 47 -10 145 l0 150 -79 83 c-43 45 -81 92 -82 104 -3 18 27 54 141 167 l144 145 156 -156 c117 -117 155 -162 156 -182z m-4071 289 c0 -8 -8 -16 -17 -18 -13 -2 -18 3 -18 18 0 15 5 20 18 18 9 -2 17 -10 17 -18z m1495 0 c0 -21 -24 -28 -35 -10 -8 14 3 30 21 30 8 0 14 -9 14 -20z m-1000 -195 l0 -185 -125 0 -125 0 -52 -48 c-29 -26 -83 -78 -119 -115 -36 -37 -69 -67 -72 -67 -4 0 -7 127 -7 282 0 248 2 284 17 300 15 16 36 18 250 18 l233 0 0 -185z m375 75 c96 -95 112 -115 111 -140 -1 -24 -26 -55 -126 -155 -157 -158 -155 -157 -263 -46 l-77 79 0 186 0 186 121 0 121 0 113 -110z m575 95 c7 -8 22 -15 34 -15 12 0 38 -16 57 -36 45 -47 79 -64 131 -64 l43 0 -112 -112 c-61 -62 -116 -123 -122 -135 -6 -12 -11 -66 -11 -120 0 -100 -7 -123 -39 -123 -8 0 -93 77 -188 172 -135 135 -173 178 -173 198 0 20 27 53 113 138 l114 112 70 0 c51 0 74 -4 83 -15z m380 7 c0 -4 -22 -30 -49 -56 -49 -49 -49 -49 -106 -44 -52 4 -60 9 -108 56 l-52 52 158 0 c86 0 157 -4 157 -8z m-30 -212 c0 -53 5 -98 12 -110 11 -17 4 -28 -65 -98 -71 -73 -77 -83 -77 -121 0 -57 -26 -81 -87 -81 -75 0 -83 13 -83 141 l0 108 125 125 c94 96 130 126 150 126 25 0 25 0 25 -90z m50 35 c18 -17 21 -17 46 -1 14 10 28 15 31 12 14 -14 -12 -81 -45 -117 -33 -38 -37 -39 -49 -23 -9 12 -13 47 -12 103 1 47 4 76 6 65 2 -12 13 -30 23 -39z m1584 -44 c27 -28 28 -51 2 -51 -15 0 -66 52 -66 68 0 22 36 12 64 -17z m-2389 -21 c0 -22 -29 -18 -33 3 -3 14 1 18 15 15 10 -2 18 -10 18 -18z m4880 0 c0 -8 -8 -16 -17 -18 -13 -2 -18 3 -18 18 0 15 5 20 18 18 9 -2 17 -10 17 -18z m-2651 -141 c-66 -66 -121 -114 -123 -108 -5 15 220 240 232 232 5 -3 -44 -59 -109 -124z m861 110 c0 -7 -8 -15 -17 -17 -18 -3 -25 18 -11 32 10 10 28 1 28 -15z m-3115 -301 l0 -293 -138 138 c-108 108 -137 143 -137 163 1 18 37 60 131 155 71 71 132 129 136 129 5 0 8 -132 8 -292z m215 115 c100 -98 193 -186 208 -196 l27 -18 0 -322 0 -322 -215 215 -215 215 0 302 c0 167 3 303 7 303 4 0 89 -80 188 -177z m2309 87 l76 -78 0 -154 0 -154 -128 -127 -129 -127 -128 0 -129 0 -196 -195 c-192 -192 -196 -195 -238 -195 -35 0 -42 3 -42 20 0 16 7 20 35 20 20 0 48 6 63 14 15 8 109 97 210 199 l182 184 0 194 0 194 141 141 c177 178 174 177 283 64z m566 52 c0 -14 -356 -363 -363 -355 -8 7 341 363 355 363 5 0 8 -3 8 -8z m325 -312 c-1 -12 -47 -67 -110 -130 -148 -148 -140 -148 -281 -9 -104 103 -113 109 -152 109 -29 0 -49 -7 -72 -26 -17 -15 -34 -24 -37 -20 -4 4 78 92 182 196 l189 189 141 -144 c100 -101 141 -150 140 -165z m-2468 148 c68 -68 123 -126 123 -130 0 -5 -81 -8 -180 -8 -167 0 -181 1 -200 20 -13 13 -20 33 -20 56 0 31 10 46 72 110 39 41 74 74 77 74 3 0 61 -55 128 -122z m-1464 91 c12 -6 52 -41 90 -77 99 -98 99 -95 -78 -272 l-145 -145 0 -107 c0 -136 -8 -148 -103 -148 -71 0 -90 11 -173 94 -94 93 -94 93 -94 242 0 108 3 133 15 138 8 3 15 18 15 34 0 23 22 50 113 140 l114 112 112 0 c63 0 122 -5 134 -11z m2623 -100 c10 -17 -13 -36 -27 -22 -12 12 -4 33 11 33 5 0 12 -5 16 -11z m-2406 -75 c0 -17 -26 -19 -36 -3 -7 12 15 31 28 23 4 -3 8 -12 8 -20z m2380 18 c0 -4 -28 -35 -62 -69 l-63 -62 -227 -3 -228 -3 -120 -120 -120 -120 0 143 0 142 351 0 350 0 52 50 c50 48 67 59 67 42z m-2080 -381 c0 -31 19 -53 209 -245 197 -199 209 -213 204 -243 -4 -24 -1 -34 16 -42 17 -9 21 -21 21 -57 0 -49 -16 -74 -49 -74 -23 0 -61 28 -61 45 0 6 -89 99 -198 208 l-198 197 -269 0 c-236 0 -271 2 -287 17 -15 14 -18 32 -18 121 l0 105 142 143 c96 98 149 144 167 146 22 3 49 -19 174 -141 132 -131 147 -149 147 -180z m2080 157 l0 -172 -192 -193 c-189 -190 -193 -193 -235 -193 -35 0 -45 5 -60 27 -10 15 -83 93 -162 175 -105 107 -145 154 -146 173 0 20 24 49 111 135 l111 110 212 0 c239 0 250 2 316 70 22 22 40 40 42 40 2 0 3 -77 3 -172z m-3095 142 c0 -8 -8 -16 -17 -18 -13 -2 -18 3 -18 18 0 15 5 20 18 18 9 -2 17 -10 17 -18z m1495 0 c0 -11 -6 -20 -14 -20 -18 0 -29 16 -21 30 11 18 35 11 35 -10z m195 0 c0 -22 -29 -18 -33 3 -3 14 1 18 15 15 10 -2 18 -10 18 -18z m455 0 c0 -11 -6 -20 -14 -20 -18 0 -29 16 -21 30 11 18 35 11 35 -10z m2345 0 c0 -8 -8 -16 -17 -18 -13 -2 -18 3 -18 18 0 15 5 20 18 18 9 -2 17 -10 17 -18z m-2845 -30 c19 -19 20 -33 20 -380 l0 -360 -55 0 c-52 0 -55 1 -55 25 0 26 -29 49 -52 40 -11 -4 -12 55 -10 327 3 380 0 368 84 368 35 0 54 -6 68 -20z m450 5 c7 -8 23 -15 36 -15 39 0 54 -35 54 -130 0 -56 5 -92 14 -105 7 -11 15 -32 18 -47 4 -24 -18 -49 -207 -237 l-211 -211 -57 0 -57 0 0 360 c0 329 2 362 18 379 15 18 33 19 198 20 150 1 184 -2 194 -14z m150 -120 c0 -80 -4 -135 -10 -135 -20 0 -30 41 -30 122 -1 53 -6 92 -15 108 -21 36 -19 40 20 40 l35 0 0 -135z m-2271 -34 c0 -77 4 -147 9 -158 6 -10 51 -57 100 -105 l89 -88 77 0 c109 0 116 -8 116 -147 l0 -106 145 -147 145 -146 0 -49 0 -49 -62 61 c-35 33 -73 66 -85 72 -15 7 -137 11 -381 11 -307 0 -361 2 -372 15 -23 28 -80 13 -80 -22 0 -7 9 -22 20 -33 20 -20 48 -18 63 7 6 10 78 13 358 13 402 0 381 4 474 -90 l60 -60 -225 -225 c-174 -174 -231 -225 -250 -225 -36 0 -485 449 -500 500 -6 22 -9 185 -8 427 l3 393 145 145 c80 80 148 145 153 145 4 0 7 -63 6 -139z m3831 22 c0 -28 -22 -21 -65 18 -57 53 -72 78 -54 90 10 6 30 -8 67 -44 28 -28 52 -57 52 -64z m765 40 c101 -106 101 -118 -1 -223 -51 -53 -81 -76 -93 -73 -10 2 -23 -3 -30 -11 -9 -10 -30 -16 -58 -16 -40 0 -50 5 -104 57 -84 80 -80 94 59 236 74 74 114 107 129 107 16 0 48 -25 98 -77z m-535 -48 c57 -57 101 -107 97 -111 -4 -4 -49 33 -100 83 -97 95 -131 113 -181 93 -56 -21 -65 -1 -13 31 54 33 80 21 197 -96z m-372 28 c-13 -14 -24 -19 -26 -13 -5 15 28 51 40 44 5 -3 -1 -17 -14 -31z m349 -75 c58 -58 93 -100 93 -114 0 -13 -31 -51 -84 -102 l-84 -82 -116 0 -116 0 0 120 c0 119 0 119 30 154 18 20 42 36 58 38 19 2 29 11 37 33 12 37 22 45 60 45 24 0 47 -17 122 -92z m-297 64 c0 -4 -18 -26 -40 -47 -47 -46 -55 -26 -8 22 31 32 48 41 48 25z m-226 -163 l-129 -129 -112 0 c-61 0 -124 -5 -140 -11 -15 -6 -98 -80 -183 -165 -86 -85 -162 -154 -170 -154 -18 0 314 336 352 356 19 10 62 14 144 14 l117 0 121 120 c67 66 123 115 125 109 2 -6 -54 -69 -125 -140z m256 132 c0 -6 -12 -23 -26 -38 -39 -41 -44 -63 -44 -184 l0 -109 -20 20 c-17 17 -20 33 -20 122 l0 102 47 48 c46 47 63 57 63 39z m-257 -202 l-130 -129 -128 0 -128 0 -132 -130 c-72 -71 -137 -130 -145 -130 -8 0 53 68 135 150 l150 150 121 0 c118 0 122 1 160 29 21 16 79 70 129 120 49 50 92 86 94 80 2 -7 -55 -70 -126 -140z m723 110 c6 -11 -52 -79 -68 -79 -23 0 -18 34 8 61 29 30 48 36 60 18z m-2746 -456 c0 -7 -1 -13 -3 -13 -5 0 -409 407 -418 422 -32 50 18 6 206 -182 118 -118 215 -220 215 -227z m2135 241 c-8 -9 -15 -21 -15 -27 -1 -7 -9 -22 -19 -34 -18 -22 -26 -23 -159 -23 -78 0 -152 -4 -166 -10 -14 -5 -52 -35 -83 -66 -32 -32 -75 -72 -96 -91 -34 -29 -40 -31 -54 -18 -19 19 -47 19 -63 0 -7 -8 -26 -15 -44 -15 -30 0 -27 3 74 106 58 58 117 112 132 120 19 10 62 14 144 14 l117 0 121 120 121 119 3 -90 c2 -70 -1 -93 -13 -105z m-1326 150 c-9 -11 -15 -12 -25 -3 -11 9 -12 15 -3 25 9 11 15 12 25 3 11 -9 12 -15 3 -25z m2068 -123 c12 -6 35 -11 52 -11 24 0 31 -4 31 -20 0 -16 -7 -20 -36 -20 -32 0 -47 10 -120 81 -46 45 -81 86 -77 91 3 6 33 -17 67 -50 33 -33 71 -65 83 -71z m-2095 -76 c2 -91 0 -165 -3 -165 -4 0 -12 7 -19 15 -17 21 -52 15 -65 -10 -28 -53 -48 -75 -72 -75 -18 0 -53 -27 -123 -95 l-98 -95 -73 0 c-97 0 -109 11 -109 102 l0 68 62 0 62 0 211 210 c115 115 213 210 217 210 4 0 8 -74 10 -165z m188 20 c139 -142 142 -146 125 -165 -16 -18 -31 -20 -152 -20 l-133 0 0 165 c0 91 4 165 8 165 5 0 73 -65 152 -145z m1785 94 c78 -80 122 -109 167 -109 31 0 38 -3 38 -20 0 -16 -7 -20 -30 -20 -17 0 -43 -6 -58 -14 -15 -8 -130 -118 -255 -244 l-228 -228 -110 112 -109 112 0 100 c0 76 3 102 15 112 8 7 15 17 15 22 0 5 10 22 22 38 l22 30 123 0 124 0 82 80 c101 98 114 100 182 29z m275 -99 c0 -44 -5 -71 -13 -79 -22 -18 -27 -3 -27 79 0 82 5 97 27 79 8 -8 13 -35 13 -79z m445 30 c18 -20 17 -20 -203 -20 -215 0 -222 1 -222 20 0 19 7 20 203 20 191 0 205 -1 222 -20z m-4550 -31 c0 -7 -8 -15 -17 -17 -18 -3 -25 18 -11 32 10 10 28 1 28 -15z m3250 -35 c0 -37 -4 -49 -15 -49 -16 0 -27 63 -16 92 12 31 31 6 31 -43z m-2507 -156 c101 -101 188 -191 194 -201 21 -39 -13 -46 -214 -47 -103 0 -199 -5 -213 -10 -15 -6 -55 -37 -89 -70 l-63 -60 -19 21 c-10 11 -26 18 -35 16 -12 -3 -63 42 -163 142 l-146 148 0 103 c0 151 -23 140 298 140 l266 0 184 -182z m2412 -233 l0 -344 -32 -38 c-18 -21 -44 -48 -58 -60 l-25 -23 -62 62 c-49 48 -61 67 -57 83 7 29 -22 58 -50 51 -14 -4 -30 3 -48 21 -28 27 -28 27 -28 164 0 130 -1 139 -23 165 -20 23 -34 28 -83 32 -50 3 -60 7 -60 23 0 10 6 19 13 19 7 0 58 43 112 95 l100 95 150 0 151 0 0 -345z m70 213 c0 -67 5 -108 14 -126 8 -15 55 -67 105 -117 50 -49 91 -94 91 -100 0 -6 -23 -33 -50 -60 -40 -39 -56 -49 -79 -47 -34 4 -55 -19 -47 -51 4 -19 -10 -39 -87 -115 -95 -94 -144 -119 -61 -30 75 80 74 75 74 449 0 331 0 332 20 314 17 -16 20 -31 20 -117z m826 117 c13 -12 15 -72 14 -390 0 -277 -4 -381 -13 -395 -11 -19 -24 -20 -210 -20 -126 0 -206 -4 -220 -11 -12 -6 -60 -49 -107 -95 l-85 -83 -93 -2 -94 -2 -59 59 -59 58 92 93 c77 77 97 92 127 95 33 3 36 6 39 38 3 23 16 48 43 77 29 32 39 51 39 76 0 30 23 56 243 275 241 240 244 242 286 242 24 0 49 -6 57 -15z m1609 -35 c0 -8 -8 -16 -17 -18 -13 -2 -18 3 -18 18 0 15 5 20 18 18 9 -2 17 -10 17 -18z m-3837 -97 c-2 -35 -7 -48 -18 -48 -11 0 -16 13 -18 48 -3 42 -1 47 18 47 19 0 21 -5 18 -47z m390 -130 c-3 -150 -5 -178 -18 -178 -13 0 -15 28 -18 178 -2 173 -2 177 18 177 20 0 20 -4 18 -177z m-1072 136 c8 -14 -45 -69 -68 -69 -26 0 -22 19 9 52 28 30 47 35 59 17z m749 -9 c18 -20 17 -20 -13 -20 -25 0 -32 4 -32 20 0 11 6 20 13 20 8 0 22 -9 32 -20z m261 3 c-3 -16 -17 -18 -108 -21 -94 -2 -106 -1 -123 18 l-18 20 126 0 c114 0 125 -2 123 -17z m449 -69 c0 -37 -4 -49 -15 -49 -16 0 -27 63 -16 92 12 31 31 6 31 -43z m-1325 -44 c0 -38 -4 -70 -9 -70 -11 0 -131 120 -131 131 0 5 32 9 70 9 l70 0 0 -70z m450 -1 c0 -89 -9 -99 -89 -99 -76 0 -100 -9 -157 -62 -55 -51 -82 -52 -124 -5 l-29 32 80 5 79 6 88 86 c136 134 152 138 152 37z m80 31 c6 0 19 9 30 20 13 13 33 20 58 20 34 0 46 -8 122 -85 l85 -85 -158 0 c-124 0 -162 3 -173 14 -9 10 -14 37 -14 85 l0 71 20 -20 c11 -11 25 -20 30 -20z m342 -25 c0 -36 1 -71 2 -77 3 -33 -36 -11 -109 62 l-80 80 93 0 92 0 2 -65z m133 45 c-10 -11 -24 -20 -32 -20 -7 0 -13 9 -13 20 0 16 7 20 32 20 30 0 31 0 13 -20z m60 0 c-10 -11 -25 -20 -33 -20 -12 0 -12 4 3 20 10 11 25 20 33 20 12 0 12 -4 -3 -20z m70 0 c-10 -11 -25 -20 -33 -20 -12 0 -12 4 3 20 10 11 25 20 33 20 12 0 12 -4 -3 -20z m135 0 c0 -18 -7 -20 -62 -20 -60 0 -61 0 -43 20 13 14 31 20 62 20 36 0 43 -3 43 -20z m-1355 -148 c-71 -4 -88 11 -87 79 0 27 1 52 1 56 1 4 33 -24 71 -62 l71 -70 -56 -3z m1074 72 c-13 -14 -25 -20 -27 -14 -5 15 17 40 36 40 12 0 10 -6 -9 -26z m46 -24 c-26 -27 -53 -47 -58 -43 -12 7 73 93 92 93 9 0 -5 -20 -34 -50z m245 35 c7 -8 20 -15 30 -15 10 0 23 7 30 15 15 18 101 21 131 5 17 -10 19 -22 19 -140 0 -134 7 -170 42 -207 28 -30 19 -37 -25 -18 -25 10 -71 15 -149 15 l-113 0 -122 122 -123 123 57 57 57 58 77 0 c56 0 80 -4 89 -15z m-1580 -99 c0 -8 -4 -17 -8 -20 -13 -8 -35 11 -28 23 10 16 36 14 36 -3z m130 1 c0 -8 -3 -17 -7 -20 -9 -9 -34 13 -27 24 8 14 34 11 34 -4z m198 -4 c-2 -10 -10 -18 -18 -18 -8 0 -16 8 -18 18 -2 12 3 17 18 17 15 0 20 -5 18 -17z m452 4 c0 -8 -3 -17 -7 -20 -9 -9 -34 13 -27 24 8 14 34 11 34 -4z m394 -63 c6 -27 2 -35 -43 -77 l-50 -47 -124 0 c-111 0 -127 -2 -151 -21 l-26 -20 0 88 c1 57 5 94 14 105 11 15 36 18 182 20 102 2 174 -1 180 -7 7 -5 15 -24 18 -41z m-1222 29 c16 -14 18 -33 18 -145 0 -75 5 -138 11 -151 6 -12 32 -43 57 -69 26 -27 40 -48 32 -48 -7 0 -84 69 -169 154 -86 85 -169 160 -184 165 -37 14 -207 14 -244 0 -15 -5 -43 -24 -60 -42 -21 -19 -33 -25 -33 -17 0 8 35 50 77 92 l78 78 199 0 c172 0 202 -2 218 -17z m130 0 c16 -15 18 -34 18 -207 l-1 -191 -49 54 -50 55 0 133 c0 141 8 173 44 173 11 0 28 -7 38 -17z m200 0 c23 -21 23 -39 -2 -70 -20 -25 -16 -52 10 -68 6 -4 10 -62 10 -141 l0 -134 -87 0 -88 0 0 197 c0 162 3 201 15 215 21 23 117 24 142 1z m450 0 c15 -14 18 -32 18 -122 l0 -105 -42 -43 -41 -42 -94 95 c-64 65 -93 102 -93 118 0 15 18 40 50 70 48 45 50 46 116 46 49 0 73 -5 86 -17z m671 -100 l117 -118 -53 3 c-50 4 -55 7 -129 80 -79 78 -95 111 -66 140 7 7 12 12 13 12 0 0 53 -53 118 -117z m-3028 67 c0 -8 -8 -16 -17 -18 -13 -2 -18 3 -18 18 0 15 5 20 18 18 9 -2 17 -10 17 -18z m1980 0 c18 -20 17 -20 -8 -20 -20 0 -27 5 -27 20 0 11 4 20 8 20 5 0 17 -9 27 -20z m4200 -1 c0 -7 -8 -15 -17 -17 -18 -3 -25 18 -11 32 10 10 28 1 28 -15z m-4096 -55 c2 -2 1 -10 -3 -19 -9 -24 -159 -18 -164 7 -3 14 6 17 45 20 46 3 114 -1 122 -8z m856 -54 c80 -81 67 -96 -15 -17 -75 72 -86 87 -68 87 7 0 45 -31 83 -70z m-1965 -18 c0 -83 -3 -94 -26 -85 -10 4 -14 25 -14 77 0 75 4 86 27 86 10 0 13 -20 13 -78z m1907 9 l62 -66 -142 3 c-212 5 -212 5 -312 -90 l-86 -81 3 83 c3 78 5 84 31 104 24 18 47 22 158 26 l129 5 42 43 c24 23 45 41 48 41 3 -1 33 -31 67 -68z m1200 12 c-21 -39 -63 -77 -77 -68 -8 5 4 24 36 56 52 53 64 56 41 12z m-2574 -133 c125 -123 168 -160 188 -160 34 0 55 -41 36 -70 -16 -27 1 -54 37 -58 l26 -3 0 -202 c0 -189 -1 -202 -21 -223 -11 -12 -22 -29 -23 -38 -1 -9 -35 -50 -75 -91 -51 -52 -81 -75 -97 -75 l-24 0 0 192 0 192 -278 280 c-314 317 -305 303 -227 375 l45 41 126 0 126 0 161 -160z m487 111 c-5 -11 -10 -72 -10 -135 0 -109 -1 -116 -20 -116 -19 0 -20 7 -20 135 l0 135 30 0 c27 0 30 -2 20 -19z m188 -74 l93 -93 -45 -42 -46 -42 -85 0 -85 0 0 123 c0 132 5 147 50 147 19 0 49 -24 118 -93z m1810 10 c12 -11 22 -26 22 -33 0 -28 -23 -25 -56 7 -25 25 -31 36 -23 46 12 14 22 10 57 -20z m-3289 -243 c-117 -117 -217 -210 -222 -207 -5 3 89 104 209 224 121 121 221 214 223 208 2 -6 -92 -107 -210 -225z m2841 223 c0 -18 -48 -67 -65 -67 -23 0 -18 25 11 54 28 28 54 34 54 13z m-457 -114 l117 -118 -192 3 c-157 2 -196 6 -209 18 -18 16 -59 11 -59 -7 0 -14 -283 -12 -298 3 -29 29 -13 63 67 141 l79 77 189 0 188 0 118 -117z m67 2 c63 -63 108 -115 99 -115 -9 0 -68 52 -132 115 -69 69 -109 115 -98 115 9 0 68 -52 131 -115z m130 0 l115 -115 -50 0 -50 0 -115 115 -115 115 50 0 50 0 115 -115z m149 106 c8 -5 11 -16 7 -29 -10 -29 26 -64 57 -57 17 5 34 -7 82 -54 37 -38 56 -64 50 -70 -6 -5 -39 -11 -75 -12 -50 -3 -71 1 -92 15 -16 10 -34 16 -41 13 -9 -3 -56 37 -118 99 l-104 104 110 0 c61 0 116 -4 124 -9z m-1059 -72 l0 -61 -29 24 c-17 13 -30 27 -30 32 -1 9 48 66 56 66 2 0 3 -27 3 -61z m1483 -51 c-58 -58 -95 -88 -103 -83 -8 5 18 38 81 101 63 63 97 90 103 84 7 -7 -20 -40 -81 -102z m-2619 -150 c138 -139 261 -266 274 -282 21 -29 22 -38 22 -241 l0 -210 -212 -213 c-168 -168 -217 -212 -238 -212 -20 0 -62 37 -198 173 l-172 173 0 177 c0 130 -4 186 -14 210 -8 18 -59 77 -115 132 l-101 100 222 222 c190 190 227 223 252 223 26 0 66 -36 280 -252z m2369 164 c32 -32 54 -61 50 -65 -7 -8 -123 101 -123 115 0 18 19 5 73 -50z m-1263 -61 c0 -31 -56 -91 -86 -91 -12 0 -27 -7 -34 -15 -10 -12 -37 -15 -121 -15 l-109 0 10 26 c6 14 10 39 10 55 l0 29 91 0 90 0 47 44 47 45 28 -26 c15 -16 27 -37 27 -52z m60 -1 c0 -11 -6 -20 -14 -20 -18 0 -29 16 -21 30 11 18 35 11 35 -10z m2345 0 c0 -8 -8 -16 -17 -18 -13 -2 -18 3 -18 18 0 15 5 20 18 18 9 -2 17 -10 17 -18z m455 0 c0 -11 -6 -20 -14 -20 -18 0 -29 16 -21 30 11 18 35 11 35 -10z m648 -3 c2 -10 -3 -17 -12 -17 -18 0 -29 16 -21 31 9 14 29 6 33 -14z m-3938 -18 c0 -16 -53 -78 -62 -73 -4 3 -4 13 1 23 7 13 6 24 -5 39 -15 21 -14 22 25 22 23 0 41 -5 41 -11z m70 -32 c0 -24 -5 -48 -12 -55 -13 -13 -92 -17 -86 -4 19 41 67 101 81 102 14 0 17 -9 17 -43z m1748 10 c12 -11 22 -26 22 -33 0 -28 -23 -25 -56 7 -25 25 -31 36 -23 46 12 14 22 10 57 -20z m964 16 c12 -11 18 -30 18 -61 0 -44 -2 -46 -141 -187 -103 -105 -145 -141 -159 -138 -10 3 -26 -3 -37 -14 -16 -16 -32 -18 -123 -15 l-105 3 -116 114 -116 115 78 0 c86 0 91 3 205 116 88 88 75 84 288 84 162 0 192 -2 208 -17z m459 -4 c11 -11 27 -18 37 -15 13 4 72 -49 217 -194 l200 -200 -126 0 c-100 0 -129 3 -139 15 -16 20 -32 19 -61 -3 -13 -9 -31 -16 -39 -16 -8 1 -193 2 -410 3 l-395 1 142 143 c77 78 146 152 152 164 6 12 11 35 11 52 0 17 8 40 17 51 16 19 29 20 195 20 166 0 179 -1 199 -21z m-3324 -15 c6 -17 -42 -74 -64 -74 -22 0 -15 32 14 62 30 32 41 35 50 12z m527 -55 c-9 -10 -29 -19 -43 -19 -25 0 -24 1 14 41 37 37 40 38 43 19 2 -12 -4 -30 -14 -41z m244 21 c125 0 132 -1 132 -20 0 -19 -7 -20 -147 -20 -159 0 -183 7 -183 56 l0 24 33 -20 c28 -17 50 -20 165 -20z m197 -20 c0 -38 -3 -45 -20 -45 -15 0 -21 8 -23 33 -4 44 4 64 25 60 13 -2 17 -14 18 -48z m689 1 c43 -44 53 -71 25 -71 -17 0 -111 98 -104 109 12 20 31 11 79 -38z m171 30 c9 -16 -46 -51 -80 -51 -19 0 -39 8 -50 20 -18 20 -17 20 31 20 27 0 56 5 64 10 19 12 27 12 35 1z m-410 -31 c18 -20 17 -20 -203 -20 -215 0 -222 1 -222 20 0 19 7 20 203 20 191 0 205 -1 222 -20z m70 0 c24 -27 -1 -27 -35 0 -24 19 -24 20 -4 20 11 0 29 -9 39 -20z m83 0 c11 -18 10 -20 -11 -20 -13 0 -32 9 -42 20 -18 20 -17 20 11 20 18 0 34 -7 42 -20z m254 -54 l-42 -46 0 -140 c0 -132 -1 -140 -19 -140 -19 0 -20 9 -24 138 -3 75 -8 152 -12 170 -7 31 -7 32 28 32 24 0 46 8 64 24 47 41 51 11 5 -38z m-1814 32 c8 -8 12 -65 12 -188 0 -164 -1 -178 -20 -195 -20 -18 -20 -17 -20 188 0 114 4 207 8 207 4 0 13 -5 20 -12z m432 -8 c0 -21 -24 -28 -35 -10 -8 14 3 30 21 30 8 0 14 -9 14 -20z m134 5 c3 -9 -1 -18 -10 -22 -19 -7 -39 11 -30 26 10 16 33 13 40 -4z m1406 -20 c19 -19 29 -35 23 -35 -15 0 -73 49 -73 61 0 17 16 9 50 -26z m-39 -20 c33 -31 57 -45 76 -45 23 0 51 -23 143 -116 63 -63 127 -122 142 -130 18 -9 60 -14 128 -14 55 0 100 -3 100 -7 0 -3 -8 -15 -17 -25 -13 -15 -18 -42 -21 -121 -5 -156 7 -147 -197 -147 -180 0 -204 5 -189 44 7 18 -21 56 -41 56 -7 0 -25 -10 -40 -21 l-27 -22 -84 84 c-46 46 -82 89 -80 96 3 6 -4 23 -15 37 -19 24 -20 38 -17 161 l3 134 40 41 c21 22 41 40 43 40 3 0 27 -20 53 -45z m-1849 -112 c-3 -120 -6 -141 -23 -158 -19 -19 -19 -18 -19 138 0 156 0 157 23 157 22 0 22 -1 19 -137z m288 130 c0 -10 -253 -263 -262 -263 -5 0 -8 53 -8 117 0 156 -3 153 152 153 65 0 118 -3 118 -7z m142 -10 c16 -14 18 -33 18 -150 l0 -133 -195 0 c-107 0 -195 3 -195 8 0 4 56 63 125 132 82 81 132 124 143 122 10 -1 27 7 37 18 22 24 42 25 67 3z m393 -3 c10 -11 23 -20 30 -20 7 0 20 9 30 20 17 19 31 20 249 20 l230 0 63 -62 63 -62 0 -123 c0 -122 0 -123 -23 -123 -13 0 -34 11 -47 25 -13 14 -41 30 -61 35 -23 6 -201 10 -446 10 -224 0 -414 0 -420 0 -10 0 -13 33 -13 132 0 176 -9 168 180 168 134 0 148 -2 165 -20z m662 -32 c28 -29 56 -63 62 -75 6 -12 11 -71 11 -132 0 -104 -1 -111 -20 -111 -19 0 -20 7 -20 109 0 60 -4 120 -9 133 -5 13 -30 44 -55 71 -25 26 -46 50 -46 52 0 18 33 -3 77 -47z m52 28 c13 -14 35 -26 50 -28 l26 -3 3 -135 c3 -129 -6 -180 -30 -180 -4 0 -8 57 -8 126 l0 125 -57 60 c-52 54 -54 59 -31 59 13 0 35 -11 47 -24z m-3011 -99 c2 -10 -3 -17 -12 -17 -18 0 -29 16 -21 31 9 14 29 6 33 -14z m-539 -573 c-287 -287 -527 -520 -532 -517 -5 3 226 241 514 529 287 287 527 520 532 517 5 -3 -226 -241 -514 -529z m2051 384 c0 -17 -161 -178 -177 -178 -31 0 -8 40 64 112 72 72 113 96 113 66z m2458 -5 c-2 -10 -10 -18 -18 -18 -8 0 -16 8 -18 18 -2 12 3 17 18 17 15 0 20 -5 18 -17z m912 3 c0 -8 -5 -18 -11 -22 -14 -8 -33 11 -25 25 10 16 36 13 36 -3z m325 -6 c0 -22 -29 -18 -33 3 -3 14 1 18 15 15 10 -2 18 -10 18 -18z m195 6 c0 -8 -5 -18 -11 -22 -14 -8 -33 11 -25 25 10 16 36 13 36 -3z m-3470 -30 c0 -8 10 -22 22 -30 20 -14 82 -16 484 -16 l462 0 31 -26 c26 -22 31 -33 31 -72 0 -29 -6 -52 -17 -64 -17 -19 -17 -21 0 -50 12 -20 17 -52 17 -101 l0 -72 -107 -107 c-86 -86 -113 -108 -136 -108 -15 0 -30 -7 -33 -15 -5 -13 -51 -15 -324 -15 -270 0 -319 2 -330 15 -7 8 -22 15 -34 15 -14 0 -108 87 -293 272 l-272 272 52 57 52 57 198 1 c165 1 197 -1 197 -13z m930 -6 c25 -19 23 -20 -426 -20 -438 0 -451 1 -469 20 -18 20 -17 20 426 20 425 0 445 -1 469 -20z m1819 -65 l-86 -85 -157 0 -156 0 -71 -65 -71 -65 -101 0 c-135 0 -137 2 -137 132 0 110 9 138 45 138 13 0 30 7 37 15 11 12 73 14 398 14 l385 1 -86 -85z m151 70 c16 -20 44 -19 65 1 19 19 22 18 123 -80 39 -39 72 -77 72 -86 0 -8 -37 -52 -82 -97 -76 -75 -87 -83 -128 -86 -67 -6 -88 6 -179 97 l-84 84 94 91 c52 49 97 90 100 91 4 0 12 -7 19 -15z m-1642 -37 c3 -15 -4 -18 -46 -18 -55 0 -67 7 -50 27 17 21 92 13 96 -9z m-158 -55 c0 -45 0 -46 -20 -28 -11 10 -20 31 -20 47 0 21 5 28 20 28 17 0 20 -7 20 -47z m60 -40 c0 -29 -4 -53 -8 -53 -21 0 -32 29 -32 84 0 58 0 59 20 41 15 -14 20 -31 20 -72z m189 -27 c65 -67 81 -89 76 -105 -8 -28 29 -64 56 -56 23 8 62 -24 110 -89 25 -33 29 -48 29 -103 0 -76 -20 -103 -75 -103 -33 0 -35 2 -35 32 0 27 -18 50 -132 164 -125 127 -131 134 -115 152 21 23 22 61 2 68 -11 5 -15 22 -15 65 0 32 4 59 8 59 4 0 45 -38 91 -84z m-119 24 c0 -43 -3 -50 -20 -50 -17 0 -20 7 -20 50 0 43 3 50 20 50 17 0 20 -7 20 -50z m-1235 -499 l39 -41 -237 0 -238 0 -49 46 c-31 29 -50 55 -50 69 0 12 -7 28 -15 35 -12 10 -15 44 -15 187 l0 174 27 23 27 24 236 -238 c129 -131 253 -257 275 -279z m1105 457 c0 -4 -9 -8 -20 -8 -15 0 -20 7 -20 27 0 25 0 26 20 8 11 -10 20 -22 20 -27z m-1690 -163 c0 -96 -3 -175 -8 -175 -17 0 -170 166 -170 185 0 25 136 165 160 165 17 0 18 -14 18 -175z m1848 108 c-3 -16 -17 -18 -107 -21 -99 -3 -139 7 -125 29 3 5 57 9 120 9 105 0 115 -2 112 -17z m272 5 c0 -16 -51 -68 -67 -68 -20 0 -16 27 9 55 22 26 58 34 58 13z m-430 -91 c0 -31 -6 -49 -20 -62 -20 -18 -20 -17 -20 43 0 55 2 62 20 62 17 0 20 -7 20 -43z m60 36 c0 -5 -9 -19 -20 -33 l-20 -25 0 33 c0 25 4 32 20 32 11 0 20 -3 20 -7z m58 -5 c7 -7 12 -40 12 -77 l0 -65 103 -103 c80 -80 109 -103 130 -103 20 0 27 -5 27 -20 0 -19 -7 -20 -185 -20 l-185 0 0 153 c0 144 1 155 21 173 12 10 27 31 35 46 16 31 24 34 42 16z m757 -74 c0 -67 -3 -79 -17 -82 -16 -3 -18 6 -18 76 0 43 3 82 7 86 19 19 28 -7 28 -80z m-243 58 l176 -3 4 -75 3 -75 -70 -69 c-92 -91 -144 -111 -185 -70 -16 16 -20 33 -20 96 l0 76 -60 62 c-61 64 -74 85 -42 70 9 -5 97 -10 194 -12z m-2522 -25 c0 -19 -10 -27 -26 -20 -21 8 -17 33 6 33 11 0 20 -6 20 -13z m2266 -229 c48 -90 -17 -69 -130 42 -86 85 -89 89 -93 141 l-5 54 106 -105 c59 -58 114 -117 122 -132z m-2177 98 c46 -46 81 -88 77 -94 -3 -5 3 -21 15 -35 19 -25 20 -38 17 -322 l-3 -295 -145 -145 c-79 -79 -145 -143 -147 -141 -2 2 -4 67 -6 144 l-2 142 -179 180 c-140 140 -180 185 -180 205 0 37 407 445 444 445 19 0 48 -23 109 -84z m3381 -381 l465 -465 -205 -205 -206 -205 -130 0 -129 0 -401 403 c-221 221 -409 413 -418 427 -10 16 -16 46 -16 86 0 73 13 88 85 99 47 6 56 13 143 101 50 52 92 100 92 107 0 7 9 20 20 30 11 9 20 28 20 41 0 36 25 45 125 46 l90 0 465 -465z m-1580 305 c0 -133 -1 -140 -20 -140 -19 0 -20 7 -20 122 0 99 3 125 17 140 9 10 18 18 20 18 1 0 3 -63 3 -140z m-70 -35 l0 -105 -100 0 c-55 0 -100 3 -100 7 0 7 191 203 197 203 2 0 3 -47 3 -105z m818 -12 c-87 -86 -98 -93 -134 -93 -33 0 -40 3 -40 20 0 17 7 20 45 20 42 0 48 4 130 85 47 46 88 79 90 73 2 -6 -39 -53 -91 -105z m-2410 24 c2 -12 -3 -17 -17 -17 -12 0 -21 6 -21 13 0 31 32 34 38 4z m134 -141 c17 -3 126 -6 243 -6 179 0 215 -2 225 -15 7 -9 21 -14 31 -13 29 5 315 -284 314 -316 0 -17 -29 -54 -97 -124 l-98 -99 0 -138 c0 -122 -2 -140 -20 -162 -18 -23 -19 -29 -6 -47 16 -25 42 -32 61 -16 19 16 19 54 0 70 -12 10 -15 40 -15 148 l0 135 96 97 c74 75 101 97 121 96 16 -1 46 -23 89 -68 l64 -66 0 -284 0 -283 -90 -90 -90 -90 -135 -5 -134 -5 -63 -62 -63 -63 -288 288 -287 288 0 468 0 468 56 -50 c30 -27 69 -53 86 -56z m2078 44 c0 -43 -3 -50 -20 -50 -17 0 -20 7 -20 43 0 46 5 57 27 57 9 0 13 -15 13 -50z m-60 0 c0 -17 -7 -20 -40 -20 -33 0 -40 3 -40 20 0 17 7 20 40 20 33 0 40 -3 40 -20z m-1502 -33 c2 -12 -3 -17 -17 -17 -12 0 -21 6 -21 13 0 31 32 34 38 4z m713 -10 c-5 -5 -17 -7 -26 -3 -14 5 -15 9 -5 21 10 12 16 13 27 4 9 -8 10 -16 4 -22z m-196 -157 c-114 -114 -156 -150 -175 -150 -19 0 -61 36 -175 150 l-150 150 325 0 325 0 -150 -150z m425 -167 l0 -317 -215 -216 -215 -215 0 282 0 283 -65 69 c-43 45 -65 77 -65 92 0 36 278 312 316 314 15 0 29 6 32 13 2 8 35 12 108 12 l104 0 0 -317z m70 5 l0 -312 -244 -245 c-135 -135 -248 -242 -253 -238 -4 4 92 108 214 230 121 122 226 232 232 244 7 14 11 124 11 327 0 299 0 306 20 306 20 0 20 -7 20 -312z m503 298 c14 -11 17 -29 17 -92 l0 -78 412 -413 413 -413 -309 0 -308 0 -145 143 c-80 78 -151 154 -159 169 -11 22 -14 93 -14 363 l0 335 38 0 c20 0 45 -7 55 -14z m-2885 -99 c2 -10 -3 -17 -12 -17 -18 0 -29 16 -21 31 9 14 29 6 33 -14z m-1736 -74 c32 -30 36 -53 11 -53 -23 0 -63 39 -63 62 0 26 19 22 52 -9z m7333 7 c0 -22 -29 -18 -33 3 -3 14 1 18 15 15 10 -2 18 -10 18 -18z m-7415 -124 c0 -8 -5 -18 -11 -22 -14 -8 -33 11 -25 25 10 16 36 13 36 -3z m3545 -36 c0 -8 -8 -16 -17 -18 -13 -2 -18 3 -18 18 0 15 5 20 18 18 9 -2 17 -10 17 -18z m2830 -360 c0 -8 -8 -16 -17 -18 -13 -2 -18 3 -18 18 0 15 5 20 18 18 9 -2 17 -10 17 -18z m-5205 -66 c0 -17 -26 -19 -36 -3 -7 12 15 31 28 23 4 -3 8 -12 8 -20z m1040 -64 c0 -21 -24 -28 -35 -10 -8 14 3 30 21 30 8 0 14 -9 14 -20z m1108 -63 c2 -12 -3 -17 -17 -17 -12 0 -21 6 -21 13 0 31 32 34 38 4z m779 -271 c-4 -9 -13 -13 -22 -10 -18 7 -20 31 -2 37 17 6 31 -9 24 -27z m1693 -56 c0 -11 -6 -20 -14 -20 -18 0 -29 16 -21 30 11 18 35 11 35 -10z m-4490 -520 c0 -11 -6 -20 -14 -20 -18 0 -29 16 -21 30 11 18 35 11 35 -10z m455 -260 c0 -8 -8 -16 -17 -18 -13 -2 -18 3 -18 18 0 15 5 20 18 18 9 -2 17 -10 17 -18z m1235 0 c0 -21 -24 -28 -35 -10 -8 14 3 30 21 30 8 0 14 -9 14 -20z m1306 9 c9 -15 -11 -33 -30 -26 -9 4 -13 13 -10 22 7 17 30 20 40 4z m129 -9 c0 -8 -8 -16 -17 -18 -13 -2 -18 3 -18 18 0 15 5 20 18 18 9 -2 17 -10 17 -18z"/>
 </g>

</svg>