<?xml version="1.0"?>
<?xml-stylesheet type="text/css" href="metro.css"?>
<!-- <svg width="100%" height="100%" viewBox="0 0 794 794" xmlns="http://www.w3.org/2000/svg" xmlns:svg="http://www.w3.org/2000/svg" preserveAspectRatio="xMidYmid meet"> -->
<svg width="100%" height="100%" viewBox="75 0 500 500" xmlns="http://www.w3.org/2000/svg" xmlns:svg="http://www.w3.org/2000/svg" preserveAspectRatio="xMidYMid meet">
<!-- <svg version="1.0" xmlns="http://www.w3.org/2000/svg" width="794px" height="794px" viewBox="0 0 7940 7940" preserveAspectRatio="xMidYMid meet"> -->
  <g id="route1">
      <path stroke="#000000" fill="#000000" stroke-width="5" d="m184.408324,5.061319c0,0 30.462829,30.014844 30.462829,30.014844c0,0 0.447985,69.885319 0.447985,69.885319c0,0 -52.861974,53.309959 -52.861974,53.309959c0,0 0.447985,25.53502 0.447985,25.53502c0,0 -52.413989,52.413989 -52.413989,52.413989c0,0 -0.447985,55.99785 -0.447985,55.99785c0,0 39.42249,40.318453 39.42249,40.318453c0,0 17.47133,-0.447985 17.47133,-0.447985c0,0 69.885319,-69.437334 69.885319,-69.437334c0,0 17.023345,0.447985 17.023345,0.447985c0,0 48.382144,47.486174 48.382144,47.486174c0,0 29.566866,0.447985 29.566866,0.447985c0,0 119.163433,117.819478 119.163433,117.819478c0,0 0,48.382144 0,48.382144" id="svg_2" fill-opacity="0"/>
  </g>
  <g id="route2">
   <path stroke="#000000" fill="#000000" stroke-width="5" stroke-dasharray="null" stroke-linejoin="null" stroke-linecap="null" d="m66.140861,116.60904c0,0 122.299308,123.643257 122.299308,123.643257c0,0 18.367293,0.447978 18.367293,0.447978c0,0 21.503175,-21.951153 21.503175,-21.951153c0,0 34.046696,0.447978 34.046696,0.447978c0,0 17.919315,17.47133 17.919315,17.47133c0,0 17.47133,0 17.47133,0c0,0 44.350299,43.454335 44.350299,43.454335c0,0 17.023345,0.895963 17.023345,0.895963c0,0 35.390645,34.494681 35.390645,34.494681c0,0 30.462829,-30.910814 30.462829,-30.910814c0,0 39.42249,0 39.42249,0c0,0 14.335448,-13.887469 14.335448,-13.887469c0,0 60.47768,0.447985 60.47768,0.447985" id="svg_5" fill-opacity="0"/>
  </g>
  <g id="route3">
   <path stroke="#000000" fill="#000000" stroke-width="5" stroke-dasharray="null" stroke-linejoin="null" stroke-linecap="null" fill-opacity="0" d="m70.172706,126.464658c0,0 122.299308,123.195278 122.299308,123.195278c0,0 65.405489,0 65.405489,0c0,0 13.887469,12.991499 13.887469,12.991499c0,0 64.509525,-0.895963 64.509525,-0.895963c0,0 14.335448,12.991499 14.335448,12.991499c0,0 30.014851,0.895963 30.014851,0.895963c0,0 0,21.503175 0,21.503175c0,0 12.991499,12.543521 12.991499,12.543521c0,0 31.358799,-30.014851 31.358799,-30.014851c0,0 42.558365,0.447985 42.558365,0.447985c0,0 61.821628,60.47768 61.821628,60.47768" id="svg_6"/>
  </g>
  <g id="route3">
   <path stroke="#000000" fill="#000000" stroke-width="5" stroke-dasharray="null" stroke-linejoin="null" stroke-linecap="null" fill-opacity="0" d="m113.179057,244.284142c0,0 52.861974,0.895963 52.861974,0.895963c0,0 52.861968,-52.861974 52.861968,-52.861974c0,0 0,-25.982999 0,-25.982999c0,0 25.983005,-26.430991 25.983005,-26.430991c0,0 148.282314,0.447985 148.282314,0.447985c0,0 12.991499,12.543521 12.991499,12.543521c0,0 0.895963,30.462829 0.895963,30.462829c0,0 25.53502,26.430984 25.53502,26.430984c0,0 0.447985,70.781289 0.447985,70.781289" id="svg_7"/>
  </g>
  <g id="route4">
   <path stroke="#000000" fill="#000000" stroke-width="5" stroke-dasharray="null" stroke-linejoin="null" stroke-linecap="null" fill-opacity="0" d="m433.038786,281.914699c0,0 14.335448,16.127381 14.335448,16.127381c0,0 -72.125231,73.917164 -72.125231,73.917164c0,0 -94.972354,0.447978 -94.972354,0.447978c0,0 -13.887469,-13.887463 -13.887469,-13.887463c0,0 -47.486181,0.447978 -47.486181,0.447978c0,0 -61.373643,-62.269607 -61.373643,-62.269607c0,0 0,-35.390645 0,-35.390645c0,0 22.399138,-22.847124 22.399138,-22.847124" id="svg_8"/>
  </g>
  <g id="route5">
   <path stroke="#000000" fill="#000000" stroke-width="5" stroke-dasharray="null" stroke-linejoin="null" stroke-linecap="null" fill-opacity="0" d="m144.089871,86.146204c0,0 144.250468,145.146432 144.250468,145.146432c0,0 57.341798,0.89597 57.341798,0.89597c0,0 26.430984,-26.878969 26.430984,-26.878969c0,0 17.023351,0 17.023351,0c0,0 12.991499,12.543514 12.991499,12.543514c0,0 104.827979,0.447985 104.827979,0.447985" id="svg_10"/>
  </g>
  <g id="route6">
   <path stroke="#000000" fill="#000000" stroke-width="5" stroke-dasharray="null" stroke-linejoin="null" stroke-linecap="null" fill-opacity="0" d="m92.123867,406.453919c0,0 0,-35.838623 0,-35.838623c0,0 43.454328,1.343948 43.454328,1.343948c0,0 12.991506,-13.887469 12.991506,-13.887469c0,0 34.94266,0.447985 34.94266,0.447985c0,0 44.798277,-43.454335 44.798277,-43.454335c0,0 102.588067,-0.447985 102.588067,-0.447985c0,0 30.014851,28.670902 30.014851,28.670902" id="svg_11"/>
  </g>
  <g id="route7">
   <path stroke="#000000" fill="#000000" stroke-width="5" stroke-dasharray="null" stroke-linejoin="null" stroke-linecap="null" fill-opacity="0" d="m377.040936,169.918993c0,0 3.58386,-3.58386 3.58386,-3.58386c0,0 43.454335,0 43.454335,0c0,0 8.959654,8.511669 8.959654,8.511669c0,0 22.399138,-0.447978 22.399138,-0.447978c0,0 13.887469,13.887463 13.887469,13.887463c0,0 7.615706,0 7.615706,0c0,0 12.543521,-12.095536 12.543521,-12.095536c0,0 -12.991499,-14.335448 -12.991499,-14.335448c0,0 -8.511676,0.895963 -8.511676,0.895963" id="svg_15"/>
  </g>
  <g id="route8">
   <path stroke="#000000" fill="#000000" stroke-width="5" stroke-dasharray="null" stroke-linejoin="null" stroke-linecap="null" fill-opacity="0" d="m109.147211,437.364733c0,0 22.399138,-22.399138 22.399138,-22.399138c0,0 0,-121.85133 0,-121.85133c0,0 12.991506,-13.887463 12.991506,-13.887463c0,0 51.966004,0.895963 51.966004,0.895963c0,0 27.326954,-26.878969 27.326954,-26.878969c0,0 -0.447985,-27.326954 -0.447985,-27.326954c0,0 17.023345,-15.679396 17.023345,-15.679396c0,0 118.267463,-0.895963 118.267463,-0.895963c0,0 64.95751,64.957504 64.95751,64.957504c0,0 30.910814,0.447985 30.910814,0.447985c0,0 30.462829,-30.014851 30.462829,-30.014851c0,0 43.90232,0.447985 43.90232,0.447985" id="svg_16"/>
  </g>
  <g id="route9">
   <path stroke="#000000" fill="#000000" stroke-width="5" stroke-dasharray="null" stroke-linejoin="null" stroke-linecap="null" fill-opacity="0" d="m175.44867,397.04628c0,0 25.982999,-25.983005 25.982999,-25.983005c0,0 0.447985,-79.292958 0.447985,-79.292958c0,0 77.94901,-77.501025 77.94901,-77.501025c0,0 78.396995,0.447985 78.396995,0.447985c0,0 13.439484,12.543514 13.439484,12.543514c0,0 -0.447985,49.726092 -0.447985,49.726092c0,0 4.031845,3.135882 4.031845,3.135882c0,0 22.847124,0 22.847124,0c0,0 68.989356,68.093386 68.989356,68.093386c0,0 -7.615712,12.991506 -7.615712,12.991506c0,0 73.917171,70.781282 73.917171,70.781282" id="svg_17"/>
  </g>
  <g id="route10">
   <path stroke="#000000" fill="#000000" stroke-width="5" stroke-dasharray="null" stroke-linejoin="null" stroke-linecap="null" fill-opacity="0" d="m152.601547,21.188701c0,0 83.772782,83.772782 83.772782,83.772782c0,0 -0.895963,105.275964 -0.895963,105.275964c0,0 -4.031845,7.615706 -4.031845,7.615706c0,0 0.895963,114.235618 0.895963,114.235618c0,0 34.046696,35.390645 34.046696,35.390645c0,0 0.447985,69.885319 0.447985,69.885319c0,0 22.399138,21.95116 22.399138,21.95116" id="svg_18"/>
  </g>
  <g id="route11">
   <path stroke="#000000" fill="#000000" stroke-width="5" stroke-dasharray="null" stroke-linejoin="null" stroke-linecap="null" fill-opacity="0" d="m266.837164,3.269386c0,0 0,30.910814 0,30.910814c0,0 17.47133,17.47133 17.47133,17.47133c0,0 18.367293,1.343948 18.367293,1.343948c0,0 42.558365,41.662402 42.558365,41.662402c0,0 0.89597,105.275964 0.89597,105.275964c0,0 -44.798284,43.902314 -44.798284,43.902314c0,0 39.870468,38.974505 39.870468,38.974505c0,0 16.575366,1.791933 16.575366,1.791933c0,0 123.195272,122.299308 123.195272,122.299308c0,0 0.447985,69.437334 0.447985,69.437334" id="svg_19"/>
  </g>
  <g id="route12">
   <path stroke="#000000" fill="#000000" stroke-width="5" stroke-dasharray="null" stroke-linejoin="null" stroke-linecap="null" fill-opacity="0" d="m341.202307,462.899753c0,0 0,-169.785489 0,-169.785489c0,0 -26.878969,-26.430984 -26.878969,-26.430984c0,0 -38.078535,0.447985 -38.078535,0.447985c0,0 -0.447985,-83.324803 -0.447985,-83.324803c0,0 84.220767,0.447978 84.220767,0.447978c0,0 25.087035,-26.878969 25.087035,-26.878969c0,0 0,-30.910814 0,-30.910814c0,0 69.885319,-69.437334 69.885319,-69.437334" id="svg_20"/>
  </g>
  <g id="route13">
   <path stroke="#000000" fill="#000000" stroke-width="5" stroke-dasharray="null" stroke-linejoin="null" stroke-linecap="null" fill-opacity="0" d="m362.705482,3.269386c0,0 -51.518019,52.861974 -51.518019,52.861974c0,0 38.974505,39.870468 38.974505,39.870468c0,0 -0.447985,104.379993 -0.447985,104.379993c0,0 -65.405489,67.197422 -65.405489,67.197422c0,0 1.343948,93.180428 1.343948,93.180428c0,0 33.598711,32.702748 33.598711,32.702748c0,0 0,83.772782 0,83.772782" id="svg_21"/>
  </g>
  <g id="route14">
   <path stroke="#000000" fill="#000000" stroke-width="5" stroke-dasharray="null" stroke-linejoin="null" stroke-linecap="null" fill-opacity="0" d="m342.098277,61.059169c0,0 -27.774939,0 -27.774939,0c0,0 0.89597,43.902314 0.89597,43.902314c0,0 -75.261113,75.261113 -75.261113,75.261113c0,0 0.447978,32.702748 0.447978,32.702748c0,0 4.927815,4.47983 4.927815,4.47983c0,0 0.447978,107.06789 0.447978,107.06789c0,0 16.575366,17.023345 16.575366,17.023345c0,0 0.895963,7.615712 0.895963,7.615712c0,0 -22.847124,0.447978 -22.847124,0.447978c0,0 -25.982999,27.774939 -25.982999,27.774939c0,0 -0.447985,64.06154 -0.447985,64.06154" id="svg_23"/>
  </g>
  <g id="route15">
   <path stroke="#000000" fill="#000000" stroke-width="5" stroke-dasharray="null" stroke-linejoin="null" stroke-linecap="null" fill-opacity="0" d="m371.217158,385.398729c0,0 40.318453,-0.447985 40.318453,-0.447985c0,0 20.607212,-21.95116 20.607212,-21.95116c0,0 -22.399145,-23.295102 -22.399145,-23.295102c0,0 -29.118881,-29.118887 -29.118881,-29.118887c0,0 -22.399138,-22.847124 -22.399138,-22.847124c0,0 -17.023345,0.89597 -17.023345,0.89597c0,0 -40.318453,-39.42249 -40.318453,-39.42249c0,0 -37.182578,0 -37.182578,0c0,0 -14.783433,-13.887469 -14.783433,-13.887469c0,0 0,-26.430984 0,-26.430984c0,0 -4.927809,0 -4.927809,0c0,0 0.447985,-21.503175 0.447985,-21.503175" id="svg_24"/>
  </g>
  <g id="route16">
   <path stroke="#000000" fill="#000000" stroke-width="5" stroke-dasharray="null" stroke-linejoin="null" stroke-linecap="null" fill-opacity="0" d="m563.84977,126.016679c0,0 -48.382144,0.895963 -48.382144,0.895963c0,0 -56.445835,-57.789783 -56.445835,-57.789783c0,0 -60.47768,0.447985 -60.47768,0.447985c0,0 -22.399145,23.295102 -22.399145,23.295102c0,0 0.447985,55.549871 0.447985,55.549871c0,0 -39.42249,39.870468 -39.42249,39.870468c0,0 -90.940509,-0.895963 -90.940509,-0.895963" id="svg_25"/>
  </g>
  <g id="route17">
   <path stroke="#000000" fill="#000000" stroke-width="5" stroke-dasharray="null" stroke-linejoin="null" stroke-linecap="null" fill-opacity="0" d="m493.516466,186.942338c0,0 -30.014851,30.910814 -30.014851,30.910814c0,0 30.014851,-30.910814 30.014851,-30.910814z" id="svg_26"/>
  </g>
  <g id="route18">
   <path stroke="#000000" fill="#000000" stroke-width="5" stroke-dasharray="null" stroke-linejoin="null" stroke-linecap="null" fill-opacity="0" d="m507.851914,186.494359c0,0 -114.235618,0.895963 -114.235618,0.895963c0,0 -47.486174,47.486181 -47.486174,47.486181c0,0 -0.447985,24.191072 -0.447985,24.191072c0,0 -39.870468,0 -39.870468,0" id="svg_27"/>
  </g>
  <g id="route19">
   <path stroke="#000000" fill="#000000" stroke-width="5" stroke-dasharray="null" stroke-linejoin="null" stroke-linecap="null" fill-opacity="0" d="m287.892354,78.082514c0,0 0.895963,22.847124 0.895963,22.847124c0,0 65.405495,65.405495 65.405495,65.405495c0,0 0.447978,38.974505 0.447978,38.974505c0,0 -48.382144,49.278107 -48.382144,49.278107c0,0 0.447985,17.919315 0.447985,17.919315c0,0 -26.878969,25.53502 -26.878969,25.53502c0,0 0,12.991499 0,12.991499c0,0 -26.878969,25.53502 -26.878969,25.53502c0,0 0,16.127381 0,16.127381c0,0 13.887469,0.895963 13.887469,0.895963c0,0 11.199566,12.543521 11.199566,12.543521c0,0 11.199573,1.791933 11.199573,1.791933c0,0 25.53502,25.53502 25.53502,25.53502c0,0 0.447985,30.014844 0.447985,30.014844" id="svg_28"/>
  </g>
  <g id="route20">
   <path stroke="#000000" fill="#000000" stroke-width="5" stroke-dasharray="null" stroke-linejoin="null" stroke-linecap="null" fill-opacity="0" d="m494.412429,91.521998c0,0 -69.885319,69.885319 -69.885319,69.885319c0,0 -13.439484,0.447985 -13.439484,0.447985c0,0 -18.367293,-17.919315 -18.367293,-17.919315c0,0 -20.607212,0 -20.607212,0c0,0 -13.887463,13.887469 -13.887463,13.887469c0,0 0,47.486181 0,47.486181c0,0 34.046689,34.94266 34.046689,34.94266c0,0 -17.023345,18.815278 -17.023345,18.815278c0,0 0.447985,68.989349 0.447985,68.989349c0,0 -30.014851,30.014851 -30.014851,30.014851c0,0 0.447985,15.231418 0.447985,15.231418" id="svg_29"/>
  </g>
</svg>
